<svg width="140" height="96" viewBox="0 0 140 96" fill="none" xmlns="http://www.w3.org/2000/svg">
<g clip-path="url(#clip0_3722_26080)">
<path d="M64.0334 3.0019L64.4263 2.97885C68.4898 2.79563 72.4755 4.17787 75.5561 6.84938C78.736 9.60695 80.692 13.5135 80.9957 17.7115L84.3478 64.8415C84.6411 69.0399 83.2576 73.1836 80.5003 76.3632C77.7427 79.5431 73.8362 81.4991 69.6381 81.8028L22.5091 85.1549C18.3104 85.4484 14.1663 84.065 10.9864 81.3074C7.9058 78.6359 5.97337 74.886 5.57962 70.8375L5.54683 70.4453L2.19476 23.3163C1.90124 19.1175 3.28467 14.9734 6.04224 11.7936C8.71375 8.71294 12.4636 6.78051 16.5122 6.38676L16.9044 6.35397L64.0334 3.0019ZM33.0186 42.643C31.5608 42.7467 30.1377 43.1368 28.8307 43.7907C27.5237 44.4445 26.3578 45.3494 25.4006 46.4538L10.1473 64.0442L9.87581 64.3572L10.2849 70.1092C10.4943 73.0523 11.8645 75.7914 14.0936 77.7244C16.3227 79.6575 19.2281 80.6263 22.1712 80.4169L69.306 77.0645C70.9558 76.9407 72.5564 76.4449 73.9874 75.6144L75.1984 74.9115L74.1404 73.994L41.0992 45.3372L41.0983 45.3373C39.9946 44.3797 38.713 43.6486 37.3268 43.1864C35.9404 42.7241 34.4764 42.5393 33.0186 42.643ZM17.2404 11.0921C14.2973 11.3014 11.5583 12.6716 9.62523 14.9007C7.69216 17.1298 6.7234 20.0352 6.93273 22.9783L9.39928 57.6573L10.9809 55.8335L21.8164 43.3428C23.1822 41.7674 24.8457 40.4764 26.7105 39.5437C28.5752 38.6111 30.6051 38.0547 32.6847 37.9067C34.7644 37.7588 36.8533 38.0222 38.8313 38.6816C40.8094 39.3409 42.6388 40.3835 44.2139 41.7498L78.3128 71.3202L78.8372 70.0219C79.4568 68.4878 79.7211 66.8331 79.6101 65.1824L76.2576 18.0476C76.0483 15.1045 74.678 12.3654 72.4489 10.4324C70.2198 8.4993 67.3144 7.53054 64.3714 7.73987L17.2404 11.0921Z" fill="black" stroke="white" stroke-width="2"/>
<path d="M50.7043 16.6176C52.6169 15.6611 54.7702 15.2934 56.8919 15.5607C59.0137 15.8281 61.0084 16.7184 62.624 18.1195C64.2397 19.5205 65.4034 21.3692 65.9683 23.4317C66.5333 25.4943 66.474 27.6779 65.7979 29.7067C65.1217 31.7355 63.8591 33.5183 62.1697 34.8295C60.4804 36.1407 58.4404 36.9217 56.3073 37.0734C53.4469 37.2768 50.6229 36.3356 48.4564 34.4568C46.2899 32.578 44.9584 29.9157 44.755 27.0552C44.6033 24.9222 45.0876 22.7921 46.1465 20.9343C47.2054 19.0763 48.7916 17.5741 50.7043 16.6176ZM55.1101 20.2409C53.5063 20.355 52.0132 21.1012 50.9598 22.316C49.9063 23.5307 49.3789 25.1144 49.493 26.7182C49.5781 27.9142 50.0157 29.0583 50.7509 30.0054C51.486 30.9525 52.4857 31.6601 53.6231 32.0392C54.7606 32.4183 55.9853 32.4523 57.1417 32.1355C58.2982 31.8188 59.3351 31.1662 60.1207 30.2603C60.9062 29.3544 61.4055 28.2355 61.5554 27.0459C61.7053 25.8563 61.4983 24.6487 60.9621 23.5763C60.4258 22.5041 59.5838 21.6145 58.5423 21.0209C57.5006 20.4272 56.3061 20.1558 55.1101 20.2409Z" fill="black" stroke="white" stroke-width="2"/>
</g>
<g clip-path="url(#clip1_3722_26080)">
<rect x="63.4404" y="19.1946" width="70.5484" height="73.1613" rx="7" fill="white"/>
<path d="M122.339 16L122.732 16.0049C126.799 16.1104 130.676 17.7719 133.56 20.6553C136.536 23.6315 138.21 27.667 138.215 31.876V79.125C138.209 83.3337 136.536 87.3687 133.56 90.3447C130.583 93.3209 126.548 94.9949 122.339 95H75.0908C70.8818 94.9949 66.8463 93.3209 63.8701 90.3447C60.9868 87.4614 59.3253 83.5839 59.2197 79.5176L59.2148 79.124V31.876C59.2199 27.667 60.8939 23.6315 63.8701 20.6553C66.7535 17.7719 70.631 16.1104 74.6973 16.0049L75.0908 16H122.339ZM75.0898 20.75C72.1393 20.75 69.31 21.9224 67.2236 24.0088C65.1373 26.0951 63.9648 28.9245 63.9648 31.875V79.125C63.9648 82.0755 65.1373 84.9049 67.2236 86.9912C69.31 89.0776 72.1393 90.25 75.0898 90.25H122.34C125.29 90.25 128.12 89.0776 130.206 86.9912C132.292 84.9049 133.465 82.0755 133.465 79.125V31.875C133.465 28.9245 132.292 26.0951 130.206 24.0088C128.12 21.9224 125.29 20.75 122.34 20.75H75.0898ZM89.6846 39.625C90.8925 39.6223 92.0802 39.938 93.1279 40.5391L93.1523 40.5527L93.1787 40.5664L110.972 49.4482C112.049 50.0314 112.95 50.8915 113.584 51.9395C114.219 52.9901 114.562 54.1922 114.577 55.4199C114.592 56.6474 114.278 57.8565 113.668 58.9219C113.062 59.9803 112.185 60.8582 111.129 61.4668L93.0127 70.5225L92.9883 70.5342L92.9648 70.5479C91.9856 71.1064 90.8763 71.3972 89.749 71.3916H89.7471C88.5163 71.3874 87.308 71.059 86.2451 70.4385L86.2383 70.4336L85.8545 70.1973C84.9787 69.6159 84.2474 68.8383 83.7207 67.9238C83.1189 66.8789 82.8054 65.6922 82.8125 64.4863V46.5186C82.8115 45.3108 83.1289 44.1239 83.7314 43.0771C84.334 42.0303 85.2011 41.1595 86.2461 40.5537C87.291 39.948 88.4769 39.6277 89.6846 39.625ZM89.6602 44.3916C89.2986 44.3915 88.943 44.4864 88.6299 44.667V44.668C88.3025 44.8533 88.0305 45.123 87.8428 45.4492C87.6556 45.7747 87.5597 46.1443 87.5635 46.5195H87.5625V64.4863C87.5646 64.8569 87.6635 65.2209 87.8486 65.542C88.0338 65.863 88.2994 66.1309 88.6191 66.3184C88.9389 66.5057 89.3023 66.6066 89.6729 66.6113C90.0296 66.6158 90.3811 66.5295 90.6963 66.3633L90.6973 66.3643L108.932 57.2471L109.011 57.1855C109.273 56.9802 109.482 56.714 109.619 56.4102C109.739 56.1443 109.8 55.8562 109.801 55.5654L109.798 55.4404C109.792 55.0846 109.696 54.7356 109.518 54.4268C109.325 54.0946 109.046 53.8209 108.709 53.6367L108.692 53.6279L108.676 53.6201L90.8906 44.7334C90.5247 44.5227 90.1123 44.4051 89.6895 44.3926L89.6748 44.3916H89.6602Z" fill="black" stroke="white" stroke-width="2"/>
</g>
<defs>
<clipPath id="clip0_3722_26080">
<rect width="81" height="81" fill="white" transform="translate(0 6.55377) rotate(-4.06833)"/>
</clipPath>
<clipPath id="clip1_3722_26080">
<rect width="81" height="81" fill="white" transform="translate(58.2148 15)"/>
</clipPath>
</defs>
</svg>
