<svg width="30" height="32" viewBox="0 0 30 32" fill="none" xmlns="http://www.w3.org/2000/svg">
<path d="M29.0733 18.2159L26.54 9.10125C25.7974 6.43102 24.1836 4.08563 21.9551 2.43787C19.7266 0.790116 17.0112 -0.0654387 14.2406 0.00720146C11.47 0.0798416 8.80319 1.07651 6.66406 2.83878C4.52493 4.60105 3.03625 7.02778 2.43464 9.73325L0.473309 18.5532C0.256663 19.5278 0.261672 20.5386 0.487966 21.511C0.71426 22.4834 1.15606 23.3925 1.78075 24.1713C2.40544 24.9501 3.19707 25.5786 4.09719 26.0105C4.99731 26.4424 5.98294 26.6666 6.98131 26.6666H8.46664C8.77266 28.1736 9.59028 29.5285 10.781 30.5017C11.9716 31.475 13.4622 32.0066 15 32.0066C16.5378 32.0066 18.0283 31.475 19.219 30.5017C20.4097 29.5285 21.2273 28.1736 21.5333 26.6666H22.6506C23.6784 26.6667 24.6922 26.4291 25.613 25.9725C26.5337 25.5159 27.3364 24.8526 27.9584 24.0344C28.5804 23.2162 29.0047 22.2653 29.1984 21.256C29.392 20.2466 29.3483 19.2062 29.0733 18.2159ZM15 29.3332C14.1756 29.3298 13.3725 29.0718 12.7004 28.5945C12.0283 28.1171 11.5201 27.4438 11.2453 26.6666H18.7546C18.4799 27.4438 17.9717 28.1171 17.2996 28.5945C16.6275 29.0718 15.8243 29.3298 15 29.3332ZM25.8346 22.4199C25.4631 22.9128 24.9817 23.3123 24.4288 23.5865C23.8758 23.8608 23.2665 24.0023 22.6493 23.9999H6.98131C6.38235 23.9998 5.79107 23.8652 5.2511 23.606C4.71112 23.3468 4.23625 22.9697 3.86152 22.5024C3.4868 22.0352 3.22179 21.4897 3.08606 20.9064C2.95033 20.323 2.94734 19.7166 3.07731 19.1319L5.03731 10.3106C5.50978 8.18552 6.67905 6.27938 8.35925 4.89518C10.0394 3.51097 12.1341 2.72814 14.3103 2.67113C16.4865 2.61412 18.6193 3.2862 20.3697 4.58054C22.1201 5.87487 23.3876 7.71718 23.9706 9.81458L26.504 18.9292C26.6714 19.5231 26.698 20.1477 26.5818 20.7537C26.4657 21.3596 26.2098 21.9301 25.8346 22.4199Z" fill="black"/>
</svg>
