<svg width="20" height="20" viewBox="0 0 20 20" fill="none" xmlns="http://www.w3.org/2000/svg">
<g clip-path="url(#clip0_5757_5059)">
<path d="M13.9748 2.98232C13.8489 2.13382 13.3502 1.42024 12.6066 1.02247C9.25958 -0.768482 5.20597 -0.167834 2.51955 2.51959C-0.166872 5.20602 -0.768518 9.25964 1.02143 12.6067C1.41919 13.3502 2.13377 13.849 2.98228 13.9749C3.1182 13.9959 3.25412 14.0049 3.39004 14.0049C4.1256 14.0049 4.84218 13.714 5.36687 13.1903L13.1893 5.36692C13.8109 4.74629 14.1037 3.85481 13.9748 2.98232ZM11.7761 3.95375L3.9537 11.7772C3.77881 11.9531 3.52596 12.038 3.2761 11.998C3.14918 11.979 2.91631 11.9111 2.78439 11.6642C1.43319 9.13971 1.90691 5.96057 3.93272 3.93376C5.18698 2.6795 6.88198 2.02088 8.59098 2.02088C9.64336 2.02088 10.7007 2.27074 11.6642 2.78643C11.91 2.91836 11.978 3.15022 11.997 3.27715C12.0339 3.526 11.951 3.77885 11.7751 3.95475L11.7761 3.95375ZM4.01067 19.5026C4.01067 20.3302 3.33907 21.0018 2.51155 21.0018C1.68404 21.0018 1.01243 20.3302 1.01243 19.5026C1.01243 18.6751 1.68404 18.0035 2.51155 18.0035C3.33907 18.0035 4.01067 18.6751 4.01067 19.5026ZM23.9989 14.5056C23.9989 15.3331 23.3273 16.0047 22.4998 16.0047C21.6723 16.0047 21.0007 15.3331 21.0007 14.5056C21.0007 13.6781 21.6723 13.0064 22.4998 13.0064C23.3273 13.0064 23.9989 13.6781 23.9989 14.5056ZM14.0048 12.5067C14.0048 13.3343 13.3332 14.0059 12.5057 14.0059C11.6782 14.0059 11.0066 13.3343 11.0066 12.5067C11.0066 11.6792 11.6782 11.0076 12.5057 11.0076C13.3332 11.0076 14.0048 11.6792 14.0048 12.5067ZM23.9989 22.5009C23.9989 23.3284 23.3273 24 22.4998 24C21.6723 24 21.0007 23.3284 21.0007 22.5009C21.0007 21.6734 21.6723 21.0018 22.4998 21.0018C23.3273 21.0018 23.9989 21.6734 23.9989 22.5009ZM19.0019 3.51101C19.0019 2.68349 19.6735 2.01189 20.501 2.01189C21.3285 2.01189 22.0001 2.68349 22.0001 3.51101C22.0001 4.33852 21.3285 5.01013 20.501 5.01013C19.6735 5.01013 19.0019 4.33852 19.0019 3.51101ZM23.6821 8.24024C22.3739 9.46252 21.1626 10.0072 19.7514 10.0072C17.6836 10.0072 16.5393 8.92184 15.9247 8.33818L15.8207 8.24024C15.418 7.86346 15.397 7.23083 15.7738 6.82807C16.1515 6.4243 16.7842 6.40331 17.1869 6.78009L17.3009 6.88703C17.8265 7.38674 18.4812 8.00737 19.7524 8.00737C20.371 8.00737 21.1596 7.86146 22.3179 6.77909C22.7217 6.40132 23.3533 6.4233 23.7311 6.82707C24.1078 7.22983 24.0859 7.86246 23.6831 8.23924L23.6821 8.24024ZM11.0046 19.2258C11.0445 20.8079 10.3819 22.4759 9.2336 23.6872C9.03671 23.8941 8.77287 23.999 8.50802 23.999C8.26117 23.999 8.01332 23.9081 7.82043 23.7252C7.42066 23.3454 7.40367 22.7118 7.78345 22.312C8.56499 21.4895 9.03271 20.3262 9.00773 19.2778C8.96875 17.7407 8.59497 17.0791 8.23319 16.6343C7.88439 16.2056 7.94935 15.5759 8.3781 15.2291C8.80685 14.8793 9.43548 14.9463 9.78427 15.3741C10.5878 16.3615 10.9646 17.5508 11.0056 19.2268L11.0046 19.2258ZM19.0019 19.9814C19.0019 21.3765 18.6191 22.5279 17.7976 23.6052C17.6007 23.8631 17.3029 23.999 17.002 23.999C16.7912 23.999 16.5783 23.933 16.3974 23.7941C15.9586 23.4593 15.8747 22.8327 16.2085 22.3939C16.7662 21.6634 17.003 20.9418 17.003 19.9824C17.003 18.5182 16.2655 17.7437 16.2335 17.7117C15.8527 17.3199 15.8507 16.6903 16.2365 16.3035C16.6232 15.9157 17.2419 15.9077 17.6347 16.2865C17.7746 16.4224 19.0019 17.6797 19.0019 19.9824V19.9814Z" fill="black"/>
</g>
<defs>
<clipPath id="clip0_5757_5059">
<rect width="20" height="20" fill="white"/>
</clipPath>
</defs>
</svg>
