<svg width="19" height="19" viewBox="0 0 19 19" fill="none" xmlns="http://www.w3.org/2000/svg">
<path d="M3.37167 13.1365C2.48643 11.6442 2.17642 9.88006 2.49983 8.17537C2.82325 6.47068 3.75785 4.94268 5.12813 3.87831C6.49842 2.81394 8.21013 2.28641 9.94184 2.39477C11.6736 2.50314 13.3061 3.23995 14.533 4.46685C15.7599 5.69374 16.4968 7.32633 16.6051 9.05804C16.7135 10.7898 16.186 12.5015 15.1216 13.8718C14.0573 15.242 12.5293 16.1767 10.8246 16.5001C9.11989 16.8235 7.35576 16.5135 5.86347 15.6283L5.86349 15.6282L3.40265 16.3313C3.30083 16.3604 3.19309 16.3617 3.09059 16.3352C2.98809 16.3086 2.89456 16.2551 2.81968 16.1802C2.74481 16.1054 2.69132 16.0118 2.66476 15.9093C2.6382 15.8068 2.63953 15.6991 2.66862 15.5973L3.37172 13.1364L3.37167 13.1365Z" stroke="white" stroke-width="1.5" stroke-linecap="round" stroke-linejoin="round"/>
</svg>
