<svg width="24" height="24" viewBox="0 0 24 24" fill="none" xmlns="http://www.w3.org/2000/svg">
<path d="M20 9.616V9.637C20 9.977 19.724 10.253 19.384 10.253H19.068C18.947 11.528 18.451 12.984 17.461 14.119C18.003 14.448 18.653 14.683 19.445 14.758C19.76 14.788 20 15.054 20 15.371V15.392C20 15.758 19.684 16.04 19.32 16.005C18.183 15.896 17.261 15.516 16.512 14.983C15.759 15.521 14.826 15.898 13.68 16.005C13.316 16.039 13.001 15.757 13.001 15.391V15.37C13.001 15.049 13.249 14.786 13.569 14.756C14.357 14.681 15.007 14.449 15.546 14.121C15.217 13.744 14.941 13.331 14.716 12.901C14.501 12.49 14.806 11.998 15.269 11.998C15.497 11.998 15.709 12.121 15.814 12.323C15.998 12.675 16.229 13.013 16.506 13.323C17.324 12.403 17.698 11.215 17.809 10.252H13.618C13.278 10.252 13.002 9.976 13.002 9.636V9.615C13.002 9.275 13.278 8.999 13.618 8.999H15.875V8.615C15.875 8.275 16.151 7.999 16.491 7.999H16.512C16.852 7.999 17.128 8.275 17.128 8.615V8.999H19.385C19.725 8.999 20.001 9.275 20.001 9.615L20 9.616ZM5.986 9.4C5.948 9.4 5.915 9.426 5.907 9.463L5.096 12.9H6.853L6.066 9.463C6.057 9.426 6.024 9.4 5.986 9.4ZM24 8.5V15.5C24 18.533 21.532 21 18.5 21H5.5C2.463 21 0 18.538 0 15.5V8.5C0 5.462 2.463 3 5.5 3H18.5C21.532 3 24 5.467 24 8.5ZM8.804 15.144L7.441 9.196C7.334 8.732 7.038 8.31 6.599 8.126C5.68 7.741 4.744 8.281 4.543 9.147L3.13 15.14C3.026 15.579 3.36 16 3.811 16C4.135 16 4.417 15.777 4.492 15.461L4.766 14.3H7.175L7.44 15.457C7.513 15.775 7.796 16 8.122 16H8.124C8.573 16 8.906 15.582 8.806 15.144H8.804ZM21 8.5C21 7.122 19.879 6 18.5 6H12V18H18.5C19.879 18 21 16.878 21 15.5V8.5Z" fill="white"/>
</svg>
