<svg width="20" height="20" viewBox="0 0 20 20" fill="none" xmlns="http://www.w3.org/2000/svg">
<g clip-path="url(#clip0_7045_5386)">
<path d="M15.8333 2.49922H10.3917C10.2667 2.49922 10.1333 2.46589 10.0167 2.40755L7.38333 1.09089C7.04167 0.915885 6.65 0.824219 6.26667 0.824219H4.15833C1.86667 0.832552 0 2.69922 0 4.99922V14.9992C0 17.2992 1.86667 19.1659 4.16667 19.1659H15.8333C18.1333 19.1659 20 17.2992 20 14.9992V6.66589C20 4.36589 18.1333 2.49922 15.8333 2.49922ZM4.16667 2.49922H6.275C6.4 2.49922 6.53333 2.53255 6.65 2.59089L9.28333 3.90755C9.625 4.08255 10.0167 4.17422 10.4 4.17422H15.8417C16.925 4.17422 17.8583 4.87422 18.2 5.84089H1.66667V5.00755C1.66667 3.63255 2.79167 2.50755 4.16667 2.50755V2.49922ZM15.8333 17.4992H4.16667C2.79167 17.4992 1.66667 16.3742 1.66667 14.9992V7.49922H18.3333V14.9992C18.3333 16.3742 17.2083 17.4992 15.8333 17.4992ZM15 12.4992C15 13.2159 14.7 13.8909 14.15 14.3909L12.8583 15.6076C12.7 15.7576 12.4917 15.8326 12.2833 15.8326C12.0583 15.8326 11.8417 15.7409 11.675 15.5742C11.3583 15.2409 11.375 14.7076 11.7083 14.3992L12.8333 13.3409H5.83333C5.375 13.3409 5 12.9659 5 12.5076C5 12.0492 5.375 11.6742 5.83333 11.6742H12.85L11.725 10.6159C11.3917 10.2992 11.375 9.77422 11.6917 9.44089C12.0083 9.10755 12.5333 9.09089 12.8667 9.40755L14.1667 10.6242C14.7083 11.1159 15.0083 11.7909 15.0083 12.5076L15 12.4992Z" fill="black"/>
</g>
<defs>
<clipPath id="clip0_7045_5386">
<rect width="20" height="20" fill="white"/>
</clipPath>
</defs>
</svg>
