<svg width="15" height="19" viewBox="0 0 15 19" fill="none" xmlns="http://www.w3.org/2000/svg">
<path fill-rule="evenodd" clip-rule="evenodd" d="M4.48601 17.5974L4.78031 15.6652L4.12472 15.6494H0.994141L3.16978 1.39127C3.17656 1.3481 3.19847 1.30802 3.23047 1.2795C3.26263 1.25099 3.30361 1.23535 3.34649 1.23535H8.62513C10.3777 1.23535 11.587 1.6122 12.2184 2.35612C12.5144 2.70511 12.7029 3.0699 12.7942 3.47119C12.8899 3.89235 12.8915 4.39547 12.7981 5.00921L12.7914 5.05385V5.44716L13.0874 5.62051C13.3366 5.75721 13.5347 5.91362 13.6867 6.09267C13.9399 6.39115 14.1036 6.77045 14.1728 7.21996C14.2444 7.68234 14.2208 8.23271 14.1036 8.85574C13.9686 9.57229 13.7502 10.1965 13.4553 10.7071C13.1842 11.1776 12.8386 11.568 12.4283 11.8704C12.0366 12.1578 11.5713 12.3759 11.0451 12.5156C10.5352 12.6527 9.95381 12.722 9.31619 12.722H8.9054C8.61173 12.722 8.32641 12.8313 8.10242 13.0273C7.87779 13.2274 7.7293 13.5008 7.68375 13.7997L7.65269 13.9737L7.13266 17.3794L7.10918 17.5044C7.10287 17.5439 7.09215 17.5637 7.07639 17.577C7.06236 17.5892 7.04218 17.5974 7.02248 17.5974H4.48601Z" fill="#28356A"/>
<path fill-rule="evenodd" clip-rule="evenodd" d="M13.3668 5.09961C13.3512 5.20372 13.3331 5.31011 13.3129 5.41943C12.6168 9.11362 10.2351 10.3898 7.19343 10.3898H5.64469C5.27268 10.3898 4.95915 10.6689 4.90129 11.0482L3.88378 17.7192C3.8461 17.9683 4.03179 18.1927 4.27486 18.1927H7.02177C7.34696 18.1927 7.62329 17.9485 7.67452 17.6169L7.70148 17.4727L8.21867 14.0804L8.25193 13.8944C8.30253 13.5617 8.57949 13.3173 8.90469 13.3173H9.31548C11.9768 13.3173 14.0602 12.2006 14.6692 8.96878C14.9234 7.61877 14.7918 6.49149 14.1187 5.69869C13.915 5.45968 13.6624 5.26123 13.3668 5.09961Z" fill="#298FC2"/>
<path fill-rule="evenodd" clip-rule="evenodd" d="M12.6378 4.79925C12.5314 4.76716 12.4217 4.73816 12.3091 4.71193C12.1959 4.68635 12.0801 4.6637 11.9608 4.64382C11.5432 4.57409 11.0856 4.54102 10.5955 4.54102H6.45811C6.35613 4.54102 6.25934 4.5648 6.1728 4.60782C5.98191 4.70264 5.8402 4.88935 5.80583 5.11794L4.92561 10.88L4.90039 11.048C4.95824 10.6687 5.27177 10.3896 5.64379 10.3896H7.19252C10.2342 10.3896 12.6159 9.11272 13.312 5.41919C13.3328 5.30986 13.3503 5.20347 13.3659 5.09936C13.1898 5.00275 12.9991 4.92014 12.7937 4.84976C12.7429 4.83233 12.6906 4.81555 12.6378 4.79925Z" fill="#22284F"/>
<path fill-rule="evenodd" clip-rule="evenodd" d="M5.80686 5.11784C5.84122 4.88925 5.98293 4.70254 6.17383 4.60837C6.261 4.56519 6.35715 4.54141 6.45914 4.54141H10.5965C11.0866 4.54141 11.5442 4.57464 11.9618 4.64437C12.0811 4.66409 12.197 4.6869 12.3101 4.71248C12.4227 4.73855 12.5324 4.76771 12.6388 4.79964C12.6916 4.81594 12.7439 4.83288 12.7952 4.84966C13.0006 4.92005 13.1915 5.0033 13.3675 5.09926C13.5747 3.73411 13.3658 2.80461 12.6517 1.96294C11.8644 1.03621 10.4435 0.639648 8.62517 0.639648H3.34637C2.97499 0.639648 2.65815 0.918741 2.60077 1.29868L0.402111 15.7035C0.358762 15.9884 0.571409 16.2455 0.849472 16.2455H4.10837L5.80686 5.11784Z" fill="#28356A"/>
</svg>
