<svg width="25" height="25" viewBox="0 0 25 25" fill="none" xmlns="http://www.w3.org/2000/svg">
<path d="M25 8.33177C25 10.0484 24.3479 11.8099 23.3531 13.5026C23.0677 12.7807 22.6281 12.112 22.0312 11.5599C22.5771 10.4536 22.9167 9.36094 22.9167 8.33177C22.9167 5.50885 20.7698 3.12344 18.2292 3.12344C15.901 3.12344 14.575 4.06615 13.6812 4.88802L9.69792 8.5849C9.33021 8.95365 9.24271 9.57344 9.52812 9.97031C9.71458 10.2297 9.98854 10.3859 10.2979 10.4109C10.6052 10.4391 10.9031 10.3266 11.1187 10.1089L15.4656 5.9474L16.9062 7.45156L15.6167 8.68594L20.5615 13.0255C21.7198 14.0422 22.0052 15.7495 21.225 16.9964C20.7448 17.763 19.9604 18.2786 19.074 18.4089C19.0135 18.4172 18.9542 18.4245 18.8937 18.4297C18.8896 18.9661 18.7469 19.4974 18.4542 19.9661C17.974 20.7328 17.1896 21.2484 16.3031 21.3786C16.1104 21.4057 15.9187 21.4172 15.7271 21.4078C15.6708 21.8057 15.5354 22.1932 15.3156 22.5443C14.8354 23.3109 14.051 23.8255 13.1646 23.9557C13.0156 23.9776 12.8667 23.988 12.7198 23.988C11.9833 23.988 11.2687 23.7224 10.7083 23.2297L7.475 20.3297C4.06354 17.2484 0 12.6661 0 8.33177C0 4.31094 3.0375 1.0401 6.77083 1.0401C8.44063 1.0401 9.72188 1.43177 10.7271 1.94531L9.06146 3.49115C8.42604 3.26823 7.67604 3.12344 6.77083 3.12344C4.23021 3.12344 2.08333 5.50885 2.08333 8.33177C2.08333 11.1172 4.49271 14.8286 8.86979 18.7839L12.0927 21.6734C12.2979 21.8536 12.5823 21.937 12.8635 21.8964C13.149 21.8547 13.3937 21.6932 13.551 21.4401C13.7906 21.0557 13.6719 20.4849 13.2792 20.1411L9.93854 16.9651L11.3719 15.4526L15.249 19.113C15.4354 19.2755 15.724 19.3609 16.001 19.3172C16.2865 19.2755 16.5312 19.113 16.6885 18.8609C16.9281 18.4766 16.8094 17.9057 16.4167 17.5609L12.7083 14.2036L14.099 12.6536L17.9969 16.1224C18.2052 16.3057 18.4906 16.3911 18.7708 16.3474C19.0562 16.3057 19.301 16.1432 19.4583 15.8911C19.6979 15.5068 19.5792 14.9359 19.1865 14.5911L14.1052 10.1318L12.574 11.5974C12 12.1724 11.2073 12.4974 10.3823 12.4974C9.29271 12.4974 8.37708 11.9391 7.83542 11.187C6.95521 9.96406 7.13333 8.20052 8.25 7.08385L12.2656 3.35677C13.351 2.3599 15.1448 1.03906 18.2271 1.03906C21.9604 1.03906 24.9979 4.3099 24.9979 8.33073L25 8.33177Z" fill="url(#paint0_linear_4968_5075)"/>
<defs>
<linearGradient id="paint0_linear_4968_5075" x1="12.5" y1="1.03906" x2="12.5" y2="23.988" gradientUnits="userSpaceOnUse">
<stop stop-color="#ED3E86"/>
<stop offset="1" stop-color="#8B5AB6"/>
</linearGradient>
</defs>
</svg>
