<svg width="33" height="34" viewBox="0 0 33 34" fill="none" xmlns="http://www.w3.org/2000/svg">
<path d="M8.25212 21.1261C10.5309 21.1261 12.3783 19.2788 12.3783 17C12.3783 14.7212 10.5309 12.8738 8.25212 12.8738C5.97331 12.8738 4.12598 14.7212 4.12598 17C4.12598 19.2788 5.97331 21.1261 8.25212 21.1261Z" stroke="white" stroke-width="1.5" stroke-linecap="round" stroke-linejoin="round"/>
<path d="M22.6935 30.4099C24.9723 30.4099 26.8197 28.5626 26.8197 26.2838C26.8197 24.005 24.9723 22.1577 22.6935 22.1577C20.4147 22.1577 18.5674 24.005 18.5674 26.2838C18.5674 28.5626 20.4147 30.4099 22.6935 30.4099Z" stroke="white" stroke-width="1.5" stroke-linecap="round" stroke-linejoin="round"/>
<path d="M22.6935 11.8423C24.9723 11.8423 26.8197 9.99498 26.8197 7.71617C26.8197 5.43736 24.9723 3.59003 22.6935 3.59003C20.4147 3.59003 18.5674 5.43736 18.5674 7.71617C18.5674 9.99498 20.4147 11.8423 22.6935 11.8423Z" stroke="white" stroke-width="1.5" stroke-linecap="round" stroke-linejoin="round"/>
<path d="M19.2234 9.94727L11.7227 14.7691" stroke="white" stroke-width="1.5" stroke-linecap="round" stroke-linejoin="round"/>
<path d="M11.7227 19.2309L19.2234 24.0528" stroke="white" stroke-width="1.5" stroke-linecap="round" stroke-linejoin="round"/>
</svg>
