<svg width="25" height="26" viewBox="0 0 25 26" fill="none" xmlns="http://www.w3.org/2000/svg">
<path d="M25 8.58177C25 10.2984 24.3479 12.0599 23.3531 13.7526C23.0677 13.0307 22.6281 12.362 22.0312 11.8099C22.5771 10.7036 22.9167 9.61094 22.9167 8.58177C22.9167 5.75885 20.7698 3.37344 18.2292 3.37344C15.901 3.37344 14.575 4.31615 13.6812 5.13802L9.69792 8.8349C9.33021 9.20365 9.24271 9.82344 9.52812 10.2203C9.71458 10.4797 9.98854 10.6359 10.2979 10.6609C10.6052 10.6891 10.9031 10.5766 11.1187 10.3589L15.4656 6.1974L16.9062 7.70156L15.6167 8.93594L20.5615 13.2755C21.7198 14.2922 22.0052 15.9995 21.225 17.2464C20.7448 18.013 19.9604 18.5286 19.074 18.6589C19.0135 18.6672 18.9542 18.6745 18.8937 18.6797C18.8896 19.2161 18.7469 19.7474 18.4542 20.2161C17.974 20.9828 17.1896 21.4984 16.3031 21.6286C16.1104 21.6557 15.9187 21.6672 15.7271 21.6578C15.6708 22.0557 15.5354 22.4432 15.3156 22.7943C14.8354 23.5609 14.051 24.0755 13.1646 24.2057C13.0156 24.2276 12.8667 24.238 12.7198 24.238C11.9833 24.238 11.2687 23.9724 10.7083 23.4797L7.475 20.5797C4.06354 17.4984 0 12.9161 0 8.58177C0 4.56094 3.0375 1.2901 6.77083 1.2901C8.44063 1.2901 9.72188 1.68177 10.7271 2.19531L9.06146 3.74115C8.42604 3.51823 7.67604 3.37344 6.77083 3.37344C4.23021 3.37344 2.08333 5.75885 2.08333 8.58177C2.08333 11.3672 4.49271 15.0786 8.86979 19.0339L12.0927 21.9234C12.2979 22.1036 12.5823 22.187 12.8635 22.1464C13.149 22.1047 13.3937 21.9432 13.551 21.6901C13.7906 21.3057 13.6719 20.7349 13.2792 20.3911L9.93854 17.2151L11.3719 15.7026L15.249 19.363C15.4354 19.5255 15.724 19.6109 16.001 19.5672C16.2865 19.5255 16.5312 19.363 16.6885 19.1109C16.9281 18.7266 16.8094 18.1557 16.4167 17.8109L12.7083 14.4536L14.099 12.9036L17.9969 16.3724C18.2052 16.5557 18.4906 16.6411 18.7708 16.5974C19.0562 16.5557 19.301 16.3932 19.4583 16.1411C19.6979 15.7568 19.5792 15.1859 19.1865 14.8411L14.1052 10.3818L12.574 11.8474C12 12.4224 11.2073 12.7474 10.3823 12.7474C9.29271 12.7474 8.37708 12.1891 7.83542 11.437C6.95521 10.2141 7.13333 8.45052 8.25 7.33385L12.2656 3.60677C13.351 2.6099 15.1448 1.28906 18.2271 1.28906C21.9604 1.28906 24.9979 4.5599 24.9979 8.58073L25 8.58177Z" fill="url(#paint0_linear_4968_5121)"/>
<defs>
<linearGradient id="paint0_linear_4968_5121" x1="12.5" y1="1.28906" x2="12.5" y2="24.238" gradientUnits="userSpaceOnUse">
<stop stop-color="#ED3E86"/>
<stop offset="1" stop-color="#8B5AB6"/>
</linearGradient>
</defs>
</svg>
