<svg width="28" height="28" viewBox="0 0 28 28" fill="none" xmlns="http://www.w3.org/2000/svg">
<g clip-path="url(#clip0_4968_5101)">
<path d="M19.691 8.309C18.9187 3.605 14.8365 0 9.91667 0C4.4485 0 0 4.4485 0 9.91667C0 14.8365 3.605 18.9187 8.309 19.691C9.08133 24.395 13.1635 28 18.0833 28C23.5515 28 28 23.5515 28 18.0833C28 13.1635 24.395 9.08133 19.691 8.309ZM2.33333 9.91667C2.33333 5.73533 5.73533 2.33333 9.91667 2.33333C13.5088 2.33333 16.52 4.8475 17.2982 8.20633C12.4565 8.589 8.589 12.4565 8.20633 17.2982C4.8475 16.52 2.33333 13.5088 2.33333 9.91667ZM18.0833 25.6667C14.4912 25.6667 11.48 23.1525 10.7018 19.7937C15.5435 19.411 19.411 15.5435 19.7937 10.7018C23.1525 11.48 25.6667 14.4912 25.6667 18.0833C25.6667 22.2647 22.2647 25.6667 18.0833 25.6667Z" fill="url(#paint0_linear_4968_5101)"/>
</g>
<defs>
<linearGradient id="paint0_linear_4968_5101" x1="14" y1="0" x2="14" y2="28" gradientUnits="userSpaceOnUse">
<stop stop-color="#E84088"/>
<stop offset="1" stop-color="#8D59B5"/>
</linearGradient>
<clipPath id="clip0_4968_5101">
<rect width="28" height="28" fill="white"/>
</clipPath>
</defs>
</svg>
