<svg width="32" height="32" viewBox="0 0 32 32" fill="none" xmlns="http://www.w3.org/2000/svg">
<path d="M16 28C22.6274 28 28 22.6274 28 16C28 9.37258 22.6274 4 16 4C9.37258 4 4 9.37258 4 16C4 22.6274 9.37258 28 16 28Z" stroke="url(#paint0_linear_4968_5084)" stroke-width="2" stroke-miterlimit="10"/>
<path d="M4.68311 12H27.3162" stroke="url(#paint1_linear_4968_5084)" stroke-width="2" stroke-linecap="round" stroke-linejoin="round"/>
<path d="M4.68359 20H27.3166" stroke="url(#paint2_linear_4968_5084)" stroke-width="2" stroke-linecap="round" stroke-linejoin="round"/>
<path d="M16 27.6779C18.7614 27.6779 21 22.4495 21 16C21 9.5505 18.7614 4.32214 16 4.32214C13.2386 4.32214 11 9.5505 11 16C11 22.4495 13.2386 27.6779 16 27.6779Z" stroke="url(#paint3_linear_4968_5084)" stroke-width="2" stroke-miterlimit="10"/>
<defs>
<linearGradient id="paint0_linear_4968_5084" x1="16" y1="4" x2="16" y2="28" gradientUnits="userSpaceOnUse">
<stop stop-color="#E94088"/>
<stop offset="1" stop-color="#8D59B5"/>
</linearGradient>
<linearGradient id="paint1_linear_4968_5084" x1="15.9997" y1="12" x2="15.9997" y2="13" gradientUnits="userSpaceOnUse">
<stop stop-color="#E94088"/>
<stop offset="1" stop-color="#8D59B5"/>
</linearGradient>
<linearGradient id="paint2_linear_4968_5084" x1="16.0001" y1="20" x2="16.0001" y2="21" gradientUnits="userSpaceOnUse">
<stop stop-color="#E94088"/>
<stop offset="1" stop-color="#8D59B5"/>
</linearGradient>
<linearGradient id="paint3_linear_4968_5084" x1="16" y1="4.32214" x2="16" y2="27.6779" gradientUnits="userSpaceOnUse">
<stop stop-color="#E94088"/>
<stop offset="1" stop-color="#8D59B5"/>
</linearGradient>
</defs>
</svg>
