<svg width="1086" height="635" viewBox="0 0 1086 635" fill="none" xmlns="http://www.w3.org/2000/svg">
<path d="M177.954 240.851C180.598 239.852 181.691 237.937 181.691 237.937L179.8 235.919C179.8 235.919 178.729 237.833 176.063 238.832L177.954 240.851Z" fill="url(#paint0_linear_3600_1194)"/>
<path d="M183.048 271.986C185.441 272.486 187.218 271.632 187.218 271.632L186.99 269.364C186.99 269.364 185.213 270.196 182.82 269.718L183.048 271.986Z" fill="url(#paint1_linear_3600_1194)"/>
<path d="M215.733 282.246C217.875 285.305 220.997 286.2 220.997 286.2L223.572 283.349C223.572 283.349 220.45 282.454 218.308 279.395L215.733 282.246Z" fill="url(#paint2_linear_3600_1194)"/>
<path d="M240.021 277.957C244.464 279.039 247.882 277.562 247.882 277.562L247.632 273.296C247.632 273.296 244.214 274.752 239.77 273.691L240.021 277.957Z" fill="url(#paint3_linear_3600_1194)"/>
<path d="M253.809 283.267C254.516 286.43 256.794 288.074 256.794 288.074L259.916 286.451C259.916 286.451 257.637 284.807 256.931 281.643L253.809 283.267Z" fill="url(#paint4_linear_3600_1194)"/>
<path d="M297.969 293.318C300.84 293.588 302.8 292.381 302.8 292.381L302.185 289.759C302.185 289.759 300.225 290.966 297.354 290.696L297.969 293.318Z" fill="url(#paint5_linear_3600_1194)"/>
<path d="M342.876 255.194C346.385 257.462 349.894 257.213 349.894 257.213L351.193 253.404C351.193 253.404 347.684 253.675 344.175 251.385L342.876 255.194Z" fill="url(#paint6_linear_3600_1194)"/>
<path d="M372.519 229.28C375.527 231.361 378.626 231.236 378.626 231.236L379.902 227.927C379.902 227.927 376.803 228.073 373.795 225.971L372.542 229.28H372.519Z" fill="url(#paint7_linear_3600_1194)"/>
<path d="M899.379 322.842L893.26 318.959L896.12 315.199L902.239 319.082L899.379 322.842Z" fill="url(#paint8_linear_3600_1194)"/>
<path d="M893.617 318.445C896.261 321.609 899.747 322.337 899.747 322.337L902.276 319.028C902.276 319.028 898.79 318.3 896.147 315.136L893.617 318.445Z" fill="url(#paint9_linear_3600_1194)"/>
<path d="M946.749 282.332C950.372 285.121 954.245 285.142 954.245 285.142L956.069 281.083C956.069 281.083 952.195 281.083 948.572 278.274L946.749 282.332Z" fill="url(#paint10_linear_3600_1194)"/>
<path d="M923.04 251.22C924.681 253.114 926.823 253.53 926.823 253.53L928.327 251.491C928.327 251.491 926.185 251.095 924.544 249.181L923.04 251.22Z" fill="url(#paint11_linear_3600_1194)"/>
<path d="M870.324 247.971C872.785 247.575 874.107 246.16 874.107 246.16L872.922 244.1C872.922 244.1 871.6 245.536 869.139 245.91L870.324 247.971Z" fill="url(#paint12_linear_3600_1194)"/>
<path d="M884.276 226.432C888.15 228.866 892.001 228.533 892.001 228.533L893.368 224.35C893.368 224.35 889.517 224.683 885.643 222.248L884.276 226.432Z" fill="url(#paint13_linear_3600_1194)"/>
<path d="M896.668 196.627C901.089 197.293 904.279 195.586 904.279 195.586L903.618 191.465C903.618 191.465 900.45 193.172 896.007 192.506L896.668 196.627Z" fill="url(#paint14_linear_3600_1194)"/>
<path d="M849.112 179.479C850.251 181.477 852.097 182.185 852.097 182.185L853.851 180.561C853.851 180.561 851.983 179.854 850.866 177.856L849.112 179.479Z" fill="url(#paint15_linear_3600_1194)"/>
<path d="M500.871 145.472C500.916 149.592 503.309 152.152 503.309 152.152L507.638 150.841C507.638 150.841 505.246 148.281 505.2 144.161L500.871 145.472Z" fill="url(#paint16_linear_3600_1194)"/>
<path d="M480.404 101.37C481.863 104.305 484.483 105.449 484.483 105.449L487.126 103.243C487.126 103.243 484.506 102.099 483.047 99.1641L480.404 101.37Z" fill="url(#paint17_linear_3600_1194)"/>
<path d="M447.094 96.3994C450.512 94.568 451.605 91.7793 451.605 91.7793L448.598 89.3235C448.598 89.3235 447.504 92.1123 444.086 93.9437L447.094 96.3994Z" fill="url(#paint18_linear_3600_1194)"/>
<path d="M402.354 50.4866C402.832 53.65 404.974 55.4189 404.974 55.4189L408.165 54.0038C408.165 54.0038 406.023 52.2556 405.544 49.0715L402.354 50.4866Z" fill="url(#paint19_linear_3600_1194)"/>
<path d="M382.849 2.93407C385.036 6.15984 388.272 7.11719 388.272 7.11719L390.983 4.18277C390.983 4.18277 387.748 3.20461 385.56 -0.000349998L382.849 2.93407Z" fill="url(#paint20_linear_3600_1194)"/>
<path d="M661.07 639.205C665.08 639.163 667.609 637.207 667.609 637.207L666.311 633.669C666.311 633.669 663.804 635.625 659.771 635.667L661.07 639.205Z" fill="url(#paint21_linear_3600_1194)"/>
<path d="M631.776 622.74C635.923 624.405 639.478 623.468 639.478 623.468L639.957 619.285C639.957 619.285 636.379 620.222 632.255 618.557L631.776 622.74Z" fill="url(#paint22_linear_3600_1194)"/>
<path d="M634.134 612.588C638.418 611.069 640.218 608.051 640.218 608.051L637.255 604.763C637.255 604.763 635.455 607.78 631.171 609.3L634.134 612.588Z" fill="url(#paint23_linear_3600_1194)"/>
<path d="M582.628 565.326C582.787 569.842 585.499 572.61 585.499 572.61L590.216 571.049C590.216 571.049 587.504 568.281 587.345 563.765L582.628 565.326Z" fill="url(#paint24_linear_3600_1194)"/>
<path d="M600.293 508.069C600.749 510.691 602.549 512.106 602.549 512.106L605.169 510.879C605.169 510.879 603.369 509.463 602.913 506.841L600.293 508.069Z" fill="url(#paint25_linear_3600_1194)"/>
<path d="M632.958 497.081C632.252 500.369 633.71 502.762 633.71 502.762L637.402 502.346C637.402 502.346 635.943 499.953 636.65 496.664L632.958 497.081Z" fill="url(#paint26_linear_3600_1194)"/>
<path d="M406.949 634.691C411.506 635.814 415.015 634.337 415.015 634.337L414.787 629.966C414.787 629.966 411.278 631.444 406.721 630.32L406.949 634.691Z" fill="url(#paint27_linear_3600_1194)"/>
<path d="M353.191 613.027C357.748 612.548 360.323 610.051 360.323 610.051L358.386 606.18C358.386 606.18 355.811 608.677 351.254 609.156L353.191 613.027Z" fill="url(#paint28_linear_3600_1194)"/>
<path d="M346.748 581.743C348.64 583.97 351.101 584.449 351.101 584.449L352.855 582.097C352.855 582.097 350.394 581.598 348.503 579.392L346.748 581.743Z" fill="url(#paint29_linear_3600_1194)"/>
<path d="M351.72 543.661C352.495 546.054 354.341 547.178 354.341 547.178L356.62 545.763C356.62 545.763 354.774 544.639 353.999 542.245L351.72 543.661Z" fill="url(#paint30_linear_3600_1194)"/>
<path d="M659.993 156.09C659.902 160.232 662.249 162.875 662.249 162.875L666.67 161.647C666.67 161.647 664.323 159.004 664.414 154.863L659.993 156.09Z" fill="url(#paint31_linear_3600_1194)"/>
<path d="M648.999 185.019C648.179 188.141 649.477 190.514 649.477 190.514L653.032 190.264C653.032 190.264 651.733 187.912 652.554 184.77L648.999 185.019Z" fill="url(#paint32_linear_3600_1194)"/>
<path d="M666.667 191.654C670.723 192.882 673.982 191.675 673.982 191.675V187.7C673.982 187.7 670.746 188.887 666.667 187.679V191.654Z" fill="url(#paint33_linear_3600_1194)"/>
<path d="M687.435 224.872C688.005 227.015 689.6 228.098 689.6 228.098L691.697 226.932C691.697 226.932 690.101 225.85 689.532 223.706L687.435 224.872Z" fill="url(#paint34_linear_3600_1194)"/>
<path d="M739.162 227.747C741.372 226.623 742.124 224.854 742.124 224.854L740.233 223.251C740.233 223.251 739.481 225.02 737.271 226.144L739.162 227.747Z" fill="url(#paint35_linear_3600_1194)"/>
<path d="M582.34 281.895C585.735 280.188 586.897 277.483 586.897 277.483L584.026 275.006C584.026 275.006 582.864 277.712 579.469 279.418L582.34 281.895Z" fill="url(#paint36_linear_3600_1194)"/>
<path d="M635.485 264.973C635.485 268.324 637.422 270.426 637.422 270.426L640.954 269.364C640.954 269.364 639.017 267.262 639.017 263.912L635.485 264.973Z" fill="url(#paint37_linear_3600_1194)"/>
<path d="M1055 347.167C1058.05 349.498 1061.31 349.478 1061.31 349.478L1062.82 346.064C1062.82 346.064 1059.56 346.064 1056.5 343.754L1055 347.167Z" fill="url(#paint38_linear_3600_1194)"/>
<path d="M1076.7 316.552C1080.28 319.32 1084.16 319.32 1084.16 319.32L1085.96 315.283C1085.96 315.283 1082.1 315.283 1078.5 312.515L1076.7 316.552Z" fill="url(#paint39_linear_3600_1194)"/>
<path d="M1078.66 302.092C1081.67 300.51 1082.67 298.054 1082.67 298.054L1080.05 295.89C1080.05 295.89 1079.07 298.346 1076.04 299.927L1078.66 302.092Z" fill="url(#paint40_linear_3600_1194)"/>
<path d="M1070.05 276.139C1074.27 275.848 1076.77 273.642 1076.77 273.642L1075.16 270C1075.16 270 1072.67 272.206 1068.43 272.497L1070.05 276.139Z" fill="url(#paint41_linear_3600_1194)"/>
<path d="M1029.82 459.616C1033.76 457.639 1035.08 454.497 1035.08 454.497L1031.76 451.645C1031.76 451.645 1030.44 454.788 1026.49 456.765L1029.82 459.616Z" fill="url(#paint42_linear_3600_1194)"/>
<path d="M993.441 430.162C996.676 430.35 998.818 428.914 998.818 428.914L997.998 426C997.998 426 995.856 427.436 992.62 427.249L993.441 430.162Z" fill="url(#paint43_linear_3600_1194)"/>
<path d="M952.374 453.889C953.058 458.301 956.043 460.757 956.043 460.757L960.509 458.78C960.509 458.78 957.524 456.324 956.84 451.912L952.374 453.889Z" fill="url(#paint44_linear_3600_1194)"/>
<path d="M895.204 447.729C897.163 450.331 899.898 451.018 899.898 451.018L902.04 448.479C902.04 448.479 899.305 447.792 897.346 445.19L895.204 447.729Z" fill="url(#paint45_linear_3600_1194)"/>
<path d="M878.417 488.066C882.473 490.625 886.506 490.292 886.506 490.292L887.941 485.922C887.941 485.922 883.908 486.255 879.852 483.695L878.417 488.066Z" fill="url(#paint46_linear_3600_1194)"/>
<path d="M846.729 497.344C850.147 497.677 852.472 496.241 852.472 496.241L851.742 493.12C851.742 493.12 849.418 494.556 846 494.223L846.729 497.344Z" fill="url(#paint47_linear_3600_1194)"/>
<path d="M447.63 179.101C450.228 181.578 453.304 181.89 453.304 181.89L455.104 178.81C455.104 178.81 452.028 178.498 449.43 176.021L447.63 179.101Z" fill="url(#paint48_linear_3600_1194)"/>
<path d="M500.455 198.354C504.079 196.627 505.355 193.796 505.355 193.796L502.392 191.153C502.392 191.153 501.116 193.984 497.493 195.711L500.455 198.354Z" fill="url(#paint49_linear_3600_1194)"/>
<path d="M527.326 197.311C528.625 199.267 530.585 199.871 530.585 199.871L532.248 198.102C532.248 198.102 530.289 197.498 528.99 195.542L527.326 197.311Z" fill="url(#paint50_linear_3600_1194)"/>
<path d="M550.241 258.582C550.811 260.829 552.452 261.953 552.452 261.953L554.639 260.746C554.639 260.746 552.999 259.601 552.429 257.375L550.241 258.582Z" fill="url(#paint51_linear_3600_1194)"/>
<path d="M0 473.878C0.546883 476.646 2.50656 478.124 2.50656 478.124L5.26374 476.771C5.26374 476.771 3.32688 475.293 2.75722 472.525L0 473.878Z" fill="url(#paint52_linear_3600_1194)"/>
<path d="M9.69578 506.909C13.2961 506.451 15.3013 504.432 15.3013 504.432L13.6835 501.394C13.6835 501.394 11.6782 503.412 8.07791 503.87L9.69578 506.909Z" fill="url(#paint53_linear_3600_1194)"/>
<path d="M54.8908 459.747C57.1012 462.286 59.9495 462.807 59.9495 462.807L61.932 460.06C61.932 460.06 59.0836 459.518 56.8733 457L54.8908 459.747Z" fill="url(#paint54_linear_3600_1194)"/>
<path d="M103.008 498.25C102.666 501.913 104.558 504.389 104.558 504.389L108.545 503.557C108.545 503.557 106.654 501.08 106.996 497.417L103.008 498.25Z" fill="url(#paint55_linear_3600_1194)"/>
<path d="M115.604 469.408C117.7 471.655 120.32 472.051 120.32 472.051L122.029 469.491C122.029 469.491 119.409 469.096 117.313 466.848L115.604 469.408Z" fill="url(#paint56_linear_3600_1194)"/>
<path d="M133.213 505.762C132.598 508.697 133.92 510.819 133.92 510.819L137.201 510.445C137.201 510.445 135.902 508.301 136.495 505.388L133.213 505.762Z" fill="url(#paint57_linear_3600_1194)"/>
<path d="M719.983 349.468C723.333 348.781 725.042 346.721 725.042 346.721L723.264 343.974C723.264 343.974 721.556 346.034 718.206 346.721L719.983 349.468Z" fill="url(#paint58_linear_3600_1194)"/>
<path d="M762.841 362.497C766.373 362.122 768.356 360.187 768.356 360.187L766.852 357.19C766.852 357.19 764.847 359.126 761.337 359.5L762.841 362.497Z" fill="url(#paint59_linear_3600_1194)"/>
<path d="M730.156 426.241C730.999 428.634 732.89 429.737 732.89 429.737L735.169 428.26C735.169 428.26 733.255 427.157 732.434 424.763L730.156 426.241Z" fill="url(#paint60_linear_3600_1194)"/>
<path d="M541.622 259.182L537.407 259.089L537.476 256.488L541.69 256.581L541.622 259.182Z" fill="url(#paint61_linear_3600_1194)"/>
<path d="M537.354 258.714C539.678 259.463 541.569 258.798 541.569 258.798L541.638 256.508C541.638 256.508 539.746 257.153 537.422 256.425L537.354 258.714Z" fill="url(#paint62_linear_3600_1194)"/>
<path d="M512.733 213.707L507.354 213.276L507.671 209.98L513.051 210.411L512.733 213.707Z" fill="url(#paint63_linear_3600_1194)"/>
<path d="M507.354 212.844C510.248 213.968 512.731 213.281 512.731 213.281L513.005 210.368C513.005 210.368 510.521 211.055 507.627 209.931L507.354 212.844Z" fill="url(#paint64_linear_3600_1194)"/>
<path d="M564.786 206.498L563.068 201.976L566.404 200.918L568.123 205.44L564.786 206.498Z" fill="url(#paint65_linear_3600_1194)"/>
<path d="M563.452 201.897C563.52 204.686 565.161 206.413 565.161 206.413L568.1 205.477C568.1 205.477 566.437 203.749 566.391 200.96L563.452 201.897Z" fill="url(#paint66_linear_3600_1194)"/>
<path d="M436.82 398.126C439.486 398.126 441.15 396.856 441.15 396.856L440.329 394.505C440.329 394.505 438.643 395.774 436 395.774L436.82 398.126Z" fill="url(#paint67_linear_3600_1194)"/>
<path d="M448.5 350.886C450.893 353.571 453.969 354.112 453.969 354.112L456.065 351.157C456.065 351.157 452.989 350.615 450.596 347.931L448.5 350.886Z" fill="url(#paint68_linear_3600_1194)"/>
<path d="M450.56 318.353C450.56 322.661 453.044 325.346 453.044 325.346L457.601 323.993C457.601 323.993 455.117 321.287 455.117 317L450.56 318.353Z" fill="url(#paint69_linear_3600_1194)"/>
<path d="M312.184 369.698C315.465 368.616 316.9 366.368 316.9 366.368L314.736 363.809C314.736 363.809 313.3 366.056 310.019 367.138L312.184 369.698Z" fill="url(#paint70_linear_3600_1194)"/>
<path d="M240.608 339.46C244.254 339.959 246.852 338.523 246.852 338.523L246.237 335.131C246.237 335.131 243.639 336.567 239.993 336.068L240.608 339.46Z" fill="url(#paint71_linear_3600_1194)"/>
<path d="M232.19 302.852C235.061 300.792 235.676 298.107 235.676 298.107L232.6 296.213C232.6 296.213 231.984 298.898 229.113 300.958L232.19 302.852Z" fill="url(#paint72_linear_3600_1194)"/>
<path d="M528.14 233.03C531.33 232.031 532.743 229.867 532.743 229.867L530.692 227.37C530.692 227.37 529.279 229.534 526.089 230.533L528.14 233.03Z" fill="url(#paint73_linear_3600_1194)"/>
<path d="M575.842 242.996C578.394 243.974 580.559 243.35 580.559 243.35L580.786 240.79C580.786 240.79 578.622 241.415 576.07 240.436L575.842 242.996Z" fill="url(#paint74_linear_3600_1194)"/>
<path d="M610.621 210.009C613.584 211.32 616.204 210.696 616.204 210.696L616.66 207.678C616.66 207.678 614.039 208.282 611.077 206.991L610.621 210.009Z" fill="url(#paint75_linear_3600_1194)"/>
<path d="M393.645 457.521C397.154 458.624 400.002 457.604 400.002 457.604L400.071 454.149C400.071 454.149 397.222 455.148 393.713 454.066L393.645 457.521Z" fill="url(#paint76_linear_3600_1194)"/>
<path d="M415.901 482.745C418.977 481.642 420.299 479.478 420.299 479.478L418.18 477.105C418.18 477.105 416.858 479.27 413.782 480.373L415.901 482.745Z" fill="url(#paint77_linear_3600_1194)"/>
<path d="M439.223 518.684C440.248 521.514 442.527 522.805 442.527 522.805L445.193 521.015C445.193 521.015 442.914 519.725 441.889 516.894L439.223 518.684Z" fill="url(#paint78_linear_3600_1194)"/>
<path d="M455.054 514.833C454.485 518.329 456.148 520.806 456.148 520.806L460.022 520.202C460.022 520.202 458.358 517.726 458.928 514.229L455.054 514.833Z" fill="url(#paint79_linear_3600_1194)"/>
<defs>
<linearGradient id="paint0_linear_3600_1194" x1="180.522" y1="238.306" x2="176.584" y2="236.146" gradientUnits="userSpaceOnUse">
<stop stop-color="#F8B54A"/>
<stop offset="1" stop-color="#F8A629"/>
</linearGradient>
<linearGradient id="paint1_linear_3600_1194" x1="186.798" y1="270.693" x2="182.606" y2="268.392" gradientUnits="userSpaceOnUse">
<stop stop-color="#B5188D"/>
<stop offset="1" stop-color="#4E69AE"/>
</linearGradient>
<linearGradient id="paint2_linear_3600_1194" x1="222.621" y1="283.372" x2="216.117" y2="279.803" gradientUnits="userSpaceOnUse">
<stop stop-color="#F44274"/>
<stop offset="1" stop-color="#E51F9A"/>
</linearGradient>
<linearGradient id="paint3_linear_3600_1194" x1="248.096" y1="273.571" x2="241.234" y2="279.131" gradientUnits="userSpaceOnUse">
<stop stop-color="#6DD0E7"/>
<stop offset="1" stop-color="#01A7DB"/>
</linearGradient>
<linearGradient id="paint4_linear_3600_1194" x1="259.62" y1="285.295" x2="253.586" y2="281.984" gradientUnits="userSpaceOnUse">
<stop stop-color="#F71873"/>
<stop offset="1" stop-color="#F8A629"/>
</linearGradient>
<linearGradient id="paint5_linear_3600_1194" x1="302.229" y1="291.716" x2="297.351" y2="289.039" gradientUnits="userSpaceOnUse">
<stop stop-color="#F44274"/>
<stop offset="1" stop-color="#E51F9A"/>
</linearGradient>
<linearGradient id="paint6_linear_3600_1194" x1="350.178" y1="255.007" x2="343.322" y2="251.244" gradientUnits="userSpaceOnUse">
<stop stop-color="#BE1E68"/>
<stop offset="1" stop-color="#B5188D"/>
</linearGradient>
<linearGradient id="paint7_linear_3600_1194" x1="378.881" y1="229.117" x2="372.926" y2="225.849" gradientUnits="userSpaceOnUse">
<stop stop-color="#FBE422"/>
<stop offset="1" stop-color="#C8D92B"/>
</linearGradient>
<linearGradient id="paint8_linear_3600_1194" x1="899.901" y1="322.724" x2="895.12" y2="316.195" gradientUnits="userSpaceOnUse">
<stop stop-color="#F44274"/>
<stop offset="1" stop-color="#E51F9A"/>
</linearGradient>
<linearGradient id="paint9_linear_3600_1194" x1="900.272" y1="321.694" x2="895.58" y2="315.287" gradientUnits="userSpaceOnUse">
<stop stop-color="#F44274"/>
<stop offset="1" stop-color="#E51F9A"/>
</linearGradient>
<linearGradient id="paint10_linear_3600_1194" x1="954.073" y1="285.037" x2="948.822" y2="277.865" gradientUnits="userSpaceOnUse">
<stop stop-color="#B4DF86"/>
<stop offset="1" stop-color="#84C743"/>
</linearGradient>
<linearGradient id="paint11_linear_3600_1194" x1="927.013" y1="253.166" x2="924.14" y2="249.242" gradientUnits="userSpaceOnUse">
<stop stop-color="#F44274"/>
<stop offset="1" stop-color="#E51F9A"/>
</linearGradient>
<linearGradient id="paint12_linear_3600_1194" x1="872.409" y1="247.232" x2="870.528" y2="244.662" gradientUnits="userSpaceOnUse">
<stop stop-color="#B5188D"/>
<stop offset="1" stop-color="#4E69AE"/>
</linearGradient>
<linearGradient id="paint13_linear_3600_1194" x1="891.444" y1="228.685" x2="886.231" y2="221.566" gradientUnits="userSpaceOnUse">
<stop stop-color="#6DD0E7"/>
<stop offset="1" stop-color="#01A7DB"/>
</linearGradient>
<linearGradient id="paint14_linear_3600_1194" x1="902.314" y1="196.82" x2="897.953" y2="190.864" gradientUnits="userSpaceOnUse">
<stop stop-color="#B4DF86"/>
<stop offset="1" stop-color="#84C743"/>
</linearGradient>
<linearGradient id="paint15_linear_3600_1194" x1="852.549" y1="181.619" x2="850.057" y2="178.216" gradientUnits="userSpaceOnUse">
<stop stop-color="#BE1E68"/>
<stop offset="1" stop-color="#B5188D"/>
</linearGradient>
<linearGradient id="paint16_linear_3600_1194" x1="507.768" y1="148.955" x2="500.304" y2="144.859" gradientUnits="userSpaceOnUse">
<stop stop-color="#F44274"/>
<stop offset="1" stop-color="#E51F9A"/>
</linearGradient>
<linearGradient id="paint17_linear_3600_1194" x1="486.514" y1="102.724" x2="480.539" y2="99.4455" gradientUnits="userSpaceOnUse">
<stop stop-color="#6DD0E7"/>
<stop offset="1" stop-color="#01A7DB"/>
</linearGradient>
<linearGradient id="paint18_linear_3600_1194" x1="450.025" y1="93.0533" x2="445.148" y2="90.3765" gradientUnits="userSpaceOnUse">
<stop stop-color="#BE1E68"/>
<stop offset="1" stop-color="#B5188D"/>
</linearGradient>
<linearGradient id="paint19_linear_3600_1194" x1="407.992" y1="52.6765" x2="402.037" y2="49.4085" gradientUnits="userSpaceOnUse">
<stop stop-color="#B5188D"/>
<stop offset="1" stop-color="#4E69AE"/>
</linearGradient>
<linearGradient id="paint20_linear_3600_1194" x1="390.057" y1="4.21859" x2="383.279" y2="0.499072" gradientUnits="userSpaceOnUse">
<stop stop-color="#FBE422"/>
<stop offset="1" stop-color="#C8D92B"/>
</linearGradient>
<linearGradient id="paint21_linear_3600_1194" x1="666.753" y1="637.062" x2="660.073" y2="633.396" gradientUnits="userSpaceOnUse">
<stop stop-color="#B5188D"/>
<stop offset="1" stop-color="#4E69AE"/>
</linearGradient>
<linearGradient id="paint22_linear_3600_1194" x1="639.438" y1="621.874" x2="631.798" y2="617.681" gradientUnits="userSpaceOnUse">
<stop stop-color="#F8B54A"/>
<stop offset="1" stop-color="#F8A629"/>
</linearGradient>
<linearGradient id="paint23_linear_3600_1194" x1="638.647" y1="609.219" x2="632.221" y2="605.693" gradientUnits="userSpaceOnUse">
<stop stop-color="#B4DF86"/>
<stop offset="1" stop-color="#84C743"/>
</linearGradient>
<linearGradient id="paint24_linear_3600_1194" x1="590.337" y1="569.185" x2="582.07" y2="564.648" gradientUnits="userSpaceOnUse">
<stop stop-color="#F8B54A"/>
<stop offset="1" stop-color="#F8A629"/>
</linearGradient>
<linearGradient id="paint25_linear_3600_1194" x1="604.916" y1="509.692" x2="599.979" y2="506.983" gradientUnits="userSpaceOnUse">
<stop stop-color="#6DD0E7"/>
<stop offset="1" stop-color="#01A7DB"/>
</linearGradient>
<linearGradient id="paint26_linear_3600_1194" x1="637.729" y1="500.088" x2="632.087" y2="496.992" gradientUnits="userSpaceOnUse">
<stop stop-color="#BE1E68"/>
<stop offset="1" stop-color="#B5188D"/>
</linearGradient>
<linearGradient id="paint27_linear_3600_1194" x1="414.673" y1="633.288" x2="406.582" y2="628.848" gradientUnits="userSpaceOnUse">
<stop stop-color="#B4DF86"/>
<stop offset="1" stop-color="#84C743"/>
</linearGradient>
<linearGradient id="paint28_linear_3600_1194" x1="359.195" y1="610.363" x2="351.849" y2="606.332" gradientUnits="userSpaceOnUse">
<stop stop-color="#FBE422"/>
<stop offset="1" stop-color="#C8D92B"/>
</linearGradient>
<linearGradient id="paint29_linear_3600_1194" x1="351.894" y1="582.152" x2="347.036" y2="579.486" gradientUnits="userSpaceOnUse">
<stop stop-color="#F8B54A"/>
<stop offset="1" stop-color="#F8A629"/>
</linearGradient>
<linearGradient id="paint30_linear_3600_1194" x1="356.197" y1="544.827" x2="351.535" y2="542.269" gradientUnits="userSpaceOnUse">
<stop stop-color="#BE1E68"/>
<stop offset="1" stop-color="#B5188D"/>
</linearGradient>
<linearGradient id="paint31_linear_3600_1194" x1="666.852" y1="159.682" x2="659.369" y2="155.575" gradientUnits="userSpaceOnUse">
<stop stop-color="#6DD0E7"/>
<stop offset="1" stop-color="#01A7DB"/>
</linearGradient>
<linearGradient id="paint32_linear_3600_1194" x1="653.402" y1="187.927" x2="648.094" y2="185.014" gradientUnits="userSpaceOnUse">
<stop stop-color="#F44274"/>
<stop offset="1" stop-color="#E51F9A"/>
</linearGradient>
<linearGradient id="paint33_linear_3600_1194" x1="673.759" y1="190.464" x2="666.452" y2="186.454" gradientUnits="userSpaceOnUse">
<stop stop-color="#B5188D"/>
<stop offset="1" stop-color="#4E69AE"/>
</linearGradient>
<linearGradient id="paint34_linear_3600_1194" x1="691.358" y1="225.905" x2="687.206" y2="223.626" gradientUnits="userSpaceOnUse">
<stop stop-color="#BE1E68"/>
<stop offset="1" stop-color="#B5188D"/>
</linearGradient>
<linearGradient id="paint35_linear_3600_1194" x1="740.988" y1="225.299" x2="737.795" y2="223.547" gradientUnits="userSpaceOnUse">
<stop stop-color="#F8B54A"/>
<stop offset="1" stop-color="#F8A629"/>
</linearGradient>
<linearGradient id="paint36_linear_3600_1194" x1="585.359" y1="278.648" x2="580.462" y2="275.961" gradientUnits="userSpaceOnUse">
<stop stop-color="#BE1E68"/>
<stop offset="1" stop-color="#B5188D"/>
</linearGradient>
<linearGradient id="paint37_linear_3600_1194" x1="640.997" y1="267.657" x2="634.925" y2="264.324" gradientUnits="userSpaceOnUse">
<stop stop-color="#6DD0E7"/>
<stop offset="1" stop-color="#01A7DB"/>
</linearGradient>
<linearGradient id="paint38_linear_3600_1194" x1="1061.65" y1="347.223" x2="1055.52" y2="343.858" gradientUnits="userSpaceOnUse">
<stop stop-color="#F71873"/>
<stop offset="1" stop-color="#F8A629"/>
</linearGradient>
<linearGradient id="paint39_linear_3600_1194" x1="1084.6" y1="316.807" x2="1077.41" y2="312.862" gradientUnits="userSpaceOnUse">
<stop stop-color="#FBE422"/>
<stop offset="1" stop-color="#C8D92B"/>
</linearGradient>
<linearGradient id="paint40_linear_3600_1194" x1="1081.23" y1="299.04" x2="1076.9" y2="296.664" gradientUnits="userSpaceOnUse">
<stop stop-color="#BE1E68"/>
<stop offset="1" stop-color="#B5188D"/>
</linearGradient>
<linearGradient id="paint41_linear_3600_1194" x1="1075.79" y1="273.738" x2="1068.92" y2="269.964" gradientUnits="userSpaceOnUse">
<stop stop-color="#6DD0E7"/>
<stop offset="1" stop-color="#01A7DB"/>
</linearGradient>
<linearGradient id="paint42_linear_3600_1194" x1="1033.35" y1="455.999" x2="1027.69" y2="452.892" gradientUnits="userSpaceOnUse">
<stop stop-color="#FBE422"/>
<stop offset="1" stop-color="#C8D92B"/>
</linearGradient>
<linearGradient id="paint43_linear_3600_1194" x1="998.172" y1="428.385" x2="992.727" y2="425.397" gradientUnits="userSpaceOnUse">
<stop stop-color="#BE1E68"/>
<stop offset="1" stop-color="#B5188D"/>
</linearGradient>
<linearGradient id="paint44_linear_3600_1194" x1="960.361" y1="457.336" x2="952.055" y2="452.778" gradientUnits="userSpaceOnUse">
<stop stop-color="#B4DF86"/>
<stop offset="1" stop-color="#84C743"/>
</linearGradient>
<linearGradient id="paint45_linear_3600_1194" x1="901.093" y1="448.48" x2="895.53" y2="445.427" gradientUnits="userSpaceOnUse">
<stop stop-color="#B5188D"/>
<stop offset="1" stop-color="#4E69AE"/>
</linearGradient>
<linearGradient id="paint46_linear_3600_1194" x1="886.84" y1="487.943" x2="878.946" y2="483.611" gradientUnits="userSpaceOnUse">
<stop stop-color="#6DD0E7"/>
<stop offset="1" stop-color="#01A7DB"/>
</linearGradient>
<linearGradient id="paint47_linear_3600_1194" x1="851.867" y1="495.625" x2="846.049" y2="492.432" gradientUnits="userSpaceOnUse">
<stop stop-color="#F71873"/>
<stop offset="1" stop-color="#F8A629"/>
</linearGradient>
<linearGradient id="paint48_linear_3600_1194" x1="453.817" y1="179.48" x2="448.195" y2="176.395" gradientUnits="userSpaceOnUse">
<stop stop-color="#FBE422"/>
<stop offset="1" stop-color="#C8D92B"/>
</linearGradient>
<linearGradient id="paint49_linear_3600_1194" x1="503.771" y1="195.013" x2="498.54" y2="192.143" gradientUnits="userSpaceOnUse">
<stop stop-color="#F71873"/>
<stop offset="1" stop-color="#C6211B"/>
</linearGradient>
<linearGradient id="paint50_linear_3600_1194" x1="531.552" y1="197.715" x2="527.419" y2="195.447" gradientUnits="userSpaceOnUse">
<stop stop-color="#F71873"/>
<stop offset="1" stop-color="#F8A629"/>
</linearGradient>
<linearGradient id="paint51_linear_3600_1194" x1="554.285" y1="259.714" x2="549.995" y2="257.359" gradientUnits="userSpaceOnUse">
<stop stop-color="#6DD0E7"/>
<stop offset="1" stop-color="#01A7DB"/>
</linearGradient>
<linearGradient id="paint52_linear_3600_1194" x1="4.95541" y1="475.574" x2="-0.314107" y2="472.682" gradientUnits="userSpaceOnUse">
<stop stop-color="#F87D5E"/>
<stop offset="1" stop-color="#EB622C"/>
</linearGradient>
<linearGradient id="paint53_linear_3600_1194" x1="14.2889" y1="504.53" x2="8.51008" y2="501.359" gradientUnits="userSpaceOnUse">
<stop stop-color="#FBE422"/>
<stop offset="1" stop-color="#C8D92B"/>
</linearGradient>
<linearGradient id="paint54_linear_3600_1194" x1="60.854" y1="460.332" x2="55.2906" y2="457.279" gradientUnits="userSpaceOnUse">
<stop stop-color="#6DD0E7"/>
<stop offset="1" stop-color="#01A7DB"/>
</linearGradient>
<linearGradient id="paint55_linear_3600_1194" x1="108.731" y1="501.447" x2="102.247" y2="497.889" gradientUnits="userSpaceOnUse">
<stop stop-color="#F71873"/>
<stop offset="1" stop-color="#F8A629"/>
</linearGradient>
<linearGradient id="paint56_linear_3600_1194" x1="120.926" y1="469.742" x2="115.951" y2="467.011" gradientUnits="userSpaceOnUse">
<stop stop-color="#F8B54A"/>
<stop offset="1" stop-color="#F8A629"/>
</linearGradient>
<linearGradient id="paint57_linear_3600_1194" x1="137.421" y1="508.322" x2="132.367" y2="505.549" gradientUnits="userSpaceOnUse">
<stop stop-color="#F71873"/>
<stop offset="1" stop-color="#C6211B"/>
</linearGradient>
<linearGradient id="paint58_linear_3600_1194" x1="723.972" y1="347.026" x2="718.702" y2="344.135" gradientUnits="userSpaceOnUse">
<stop stop-color="#F8B54A"/>
<stop offset="1" stop-color="#F8A629"/>
</linearGradient>
<linearGradient id="paint59_linear_3600_1194" x1="767.417" y1="360.235" x2="761.736" y2="357.118" gradientUnits="userSpaceOnUse">
<stop stop-color="#F71873"/>
<stop offset="1" stop-color="#F8A629"/>
</linearGradient>
<linearGradient id="paint60_linear_3600_1194" x1="734.727" y1="427.403" x2="730.026" y2="424.823" gradientUnits="userSpaceOnUse">
<stop stop-color="#BE1E68"/>
<stop offset="1" stop-color="#B5188D"/>
</linearGradient>
<linearGradient id="paint61_linear_3600_1194" x1="541.283" y1="259.078" x2="536.973" y2="256.712" gradientUnits="userSpaceOnUse">
<stop stop-color="#F71873"/>
<stop offset="1" stop-color="#F8A629"/>
</linearGradient>
<linearGradient id="paint62_linear_3600_1194" x1="541.284" y1="257.653" x2="537.092" y2="255.353" gradientUnits="userSpaceOnUse">
<stop stop-color="#F71873"/>
<stop offset="1" stop-color="#F8A629"/>
</linearGradient>
<linearGradient id="paint63_linear_3600_1194" x1="512.545" y1="213.101" x2="507.099" y2="210.113" gradientUnits="userSpaceOnUse">
<stop stop-color="#F8B54A"/>
<stop offset="1" stop-color="#F8A629"/>
</linearGradient>
<linearGradient id="paint64_linear_3600_1194" x1="512.551" y1="211.891" x2="507.243" y2="208.978" gradientUnits="userSpaceOnUse">
<stop stop-color="#F8B54A"/>
<stop offset="1" stop-color="#F8A629"/>
</linearGradient>
<linearGradient id="paint65_linear_3600_1194" x1="567.792" y1="206.02" x2="562.443" y2="203.087" gradientUnits="userSpaceOnUse">
<stop stop-color="#6DD0E7"/>
<stop offset="1" stop-color="#01A7DB"/>
</linearGradient>
<linearGradient id="paint66_linear_3600_1194" x1="568.044" y1="203.935" x2="562.951" y2="201.14" gradientUnits="userSpaceOnUse">
<stop stop-color="#6DD0E7"/>
<stop offset="1" stop-color="#01A7DB"/>
</linearGradient>
<linearGradient id="paint67_linear_3600_1194" x1="440.488" y1="396.41" x2="436.06" y2="393.98" gradientUnits="userSpaceOnUse">
<stop stop-color="#F44274"/>
<stop offset="1" stop-color="#E51F9A"/>
</linearGradient>
<linearGradient id="paint68_linear_3600_1194" x1="454.924" y1="351.555" x2="449.008" y2="348.308" gradientUnits="userSpaceOnUse">
<stop stop-color="#6DD0E7"/>
<stop offset="1" stop-color="#01A7DB"/>
</linearGradient>
<linearGradient id="paint69_linear_3600_1194" x1="457.736" y1="322.058" x2="449.94" y2="317.779" gradientUnits="userSpaceOnUse">
<stop stop-color="#F8B54A"/>
<stop offset="1" stop-color="#F8A629"/>
</linearGradient>
<linearGradient id="paint70_linear_3600_1194" x1="315.64" y1="366.941" x2="310.665" y2="364.211" gradientUnits="userSpaceOnUse">
<stop stop-color="#BE1E68"/>
<stop offset="1" stop-color="#B5188D"/>
</linearGradient>
<linearGradient id="paint71_linear_3600_1194" x1="246.3" y1="337.797" x2="240.011" y2="334.346" gradientUnits="userSpaceOnUse">
<stop stop-color="#F71873"/>
<stop offset="1" stop-color="#F8A629"/>
</linearGradient>
<linearGradient id="paint72_linear_3600_1194" x1="234.164" y1="299.552" x2="230.168" y2="297.359" gradientUnits="userSpaceOnUse">
<stop stop-color="#B4DF86"/>
<stop offset="1" stop-color="#84C743"/>
</linearGradient>
<linearGradient id="paint73_linear_3600_1194" x1="531.552" y1="230.363" x2="526.714" y2="227.707" gradientUnits="userSpaceOnUse">
<stop stop-color="#B4DF86"/>
<stop offset="1" stop-color="#84C743"/>
</linearGradient>
<linearGradient id="paint74_linear_3600_1194" x1="580.362" y1="242.037" x2="575.68" y2="239.467" gradientUnits="userSpaceOnUse">
<stop stop-color="#F71873"/>
<stop offset="1" stop-color="#C6211B"/>
</linearGradient>
<linearGradient id="paint75_linear_3600_1194" x1="616.139" y1="209.185" x2="610.615" y2="206.153" gradientUnits="userSpaceOnUse">
<stop stop-color="#FBE422"/>
<stop offset="1" stop-color="#C8D92B"/>
</linearGradient>
<linearGradient id="paint76_linear_3600_1194" x1="399.739" y1="456.372" x2="393.412" y2="452.899" gradientUnits="userSpaceOnUse">
<stop stop-color="#F44274"/>
<stop offset="1" stop-color="#E51F9A"/>
</linearGradient>
<linearGradient id="paint77_linear_3600_1194" x1="419.05" y1="480.067" x2="414.407" y2="477.519" gradientUnits="userSpaceOnUse">
<stop stop-color="#B5188D"/>
<stop offset="1" stop-color="#4E69AE"/>
</linearGradient>
<linearGradient id="paint78_linear_3600_1194" x1="444.719" y1="520.21" x2="439.136" y2="517.146" gradientUnits="userSpaceOnUse">
<stop stop-color="#F44274"/>
<stop offset="1" stop-color="#E51F9A"/>
</linearGradient>
<linearGradient id="paint79_linear_3600_1194" x1="460.318" y1="518.017" x2="454.206" y2="514.663" gradientUnits="userSpaceOnUse">
<stop stop-color="#6DD0E7"/>
<stop offset="1" stop-color="#01A7DB"/>
</linearGradient>
</defs>
</svg>
