<svg width="202" height="26" viewBox="0 0 202 26" fill="none" xmlns="http://www.w3.org/2000/svg">
<path d="M0.128 7.432V2.6H17.856V7.432H11.68V25H6.272V7.432H0.128ZM24.6895 0.039999V25H19.8255V0.039999H24.6895ZM29.3935 16.04C29.3935 15.1653 29.2335 14.4933 28.9135 14.024C28.5935 13.5547 28.0388 13.32 27.2495 13.32C26.7375 13.32 26.2895 13.4373 25.9055 13.672C25.5215 13.8853 25.2228 14.1947 25.0095 14.6C24.7962 14.984 24.6895 15.464 24.6895 16.04H23.8575C23.8575 14.8667 24.0495 13.8107 24.4335 12.872C24.8175 11.912 25.3935 11.1547 26.1615 10.6C26.9508 10.024 27.9535 9.736 29.1695 9.736C30.3855 9.736 31.3562 9.94933 32.0815 10.376C32.8282 10.8027 33.3722 11.432 33.7135 12.264C34.0548 13.096 34.2255 14.12 34.2255 15.336V25H29.3935V16.04ZM45.5323 25.32C43.8256 25.32 42.3429 25.0107 41.0843 24.392C39.8469 23.752 38.8869 22.856 38.2043 21.704C37.5216 20.552 37.1803 19.1973 37.1803 17.64C37.1803 16.0613 37.5109 14.696 38.1723 13.544C38.8336 12.392 39.7829 11.5067 41.0203 10.888C42.2789 10.2693 43.7616 9.96 45.4683 9.96C47.1749 9.96 48.6149 10.2587 49.7883 10.856C50.9616 11.432 51.8576 12.2747 52.4763 13.384C53.0949 14.4933 53.4043 15.8373 53.4043 17.416C53.4043 17.6507 53.4043 17.8853 53.4043 18.12C53.4043 18.3333 53.3829 18.5147 53.3403 18.664H39.9003V15.976H48.9883L47.8363 17.448C47.9429 17.2987 48.0283 17.1173 48.0923 16.904C48.1776 16.6693 48.2203 16.4773 48.2203 16.328C48.2203 15.688 48.1029 15.1333 47.8683 14.664C47.6336 14.1947 47.3029 13.832 46.8763 13.576C46.4496 13.32 45.9483 13.192 45.3723 13.192C44.6469 13.192 44.0389 13.352 43.5483 13.672C43.0576 13.992 42.6843 14.4827 42.4283 15.144C42.1936 15.784 42.0656 16.5947 42.0443 17.576C42.0443 18.472 42.1723 19.24 42.4283 19.88C42.6843 20.52 43.0683 21.0107 43.5803 21.352C44.0923 21.672 44.7216 21.832 45.4683 21.832C46.3216 21.832 47.0469 21.672 47.6443 21.352C48.2629 21.032 48.7536 20.552 49.1163 19.912L53.4363 20.968C52.6683 22.4187 51.6229 23.5067 50.3003 24.232C48.9989 24.9573 47.4096 25.32 45.5323 25.32ZM66.4618 2.6H71.8698V25H66.4618V2.6ZM69.8538 7.048V2.6H74.2378C76.1364 2.6 77.7258 2.89867 79.0058 3.496C80.3071 4.072 81.2884 4.904 81.9498 5.992C82.6111 7.08 82.9418 8.392 82.9418 9.928C82.9418 11.4213 82.6111 12.7227 81.9498 13.832C81.2884 14.92 80.3071 15.7627 79.0058 16.36C77.7258 16.936 76.1364 17.224 74.2378 17.224H69.8538V12.776H74.2378C75.3258 12.776 76.1791 12.5307 76.7978 12.04C77.4164 11.5493 77.7258 10.8453 77.7258 9.928C77.7258 8.98933 77.4164 8.27467 76.7978 7.784C76.1791 7.29333 75.3258 7.048 74.2378 7.048H69.8538ZM90.0623 10.28V25H85.2943V10.28H90.0623ZM94.3183 15.272C94.0623 15.016 93.7849 14.8133 93.4863 14.664C93.2089 14.5147 92.8569 14.44 92.4303 14.44C91.9609 14.44 91.5449 14.568 91.1823 14.824C90.8196 15.08 90.5423 15.4533 90.3503 15.944C90.1583 16.4347 90.0623 17.032 90.0623 17.736L88.9103 16.04C88.9103 14.8667 89.1343 13.8213 89.5823 12.904C90.0516 11.9867 90.6596 11.2613 91.4062 10.728C92.1529 10.1947 92.9316 9.928 93.7423 9.928C94.2756 9.928 94.7876 10.0347 95.2783 10.248C95.7689 10.4613 96.1423 10.76 96.3983 11.144L94.3183 15.272ZM97.1178 17.64C97.1178 16.0827 97.4804 14.728 98.2057 13.576C98.9311 12.424 99.9338 11.528 101.214 10.888C102.494 10.248 103.934 9.928 105.534 9.928C107.134 9.928 108.563 10.248 109.822 10.888C111.102 11.528 112.104 12.424 112.83 13.576C113.576 14.728 113.95 16.0827 113.95 17.64C113.95 19.176 113.576 20.52 112.83 21.672C112.104 22.824 111.102 23.72 109.822 24.36C108.563 25 107.134 25.32 105.534 25.32C103.934 25.32 102.494 25 101.214 24.36C99.9338 23.72 98.9311 22.824 98.2057 21.672C97.4804 20.52 97.1178 19.176 97.1178 17.64ZM102.078 17.64C102.078 18.408 102.238 19.0693 102.558 19.624C102.878 20.1573 103.294 20.5733 103.806 20.872C104.318 21.1707 104.894 21.32 105.534 21.32C106.152 21.32 106.718 21.1707 107.23 20.872C107.763 20.5733 108.179 20.1573 108.478 19.624C108.798 19.0693 108.958 18.408 108.958 17.64C108.958 16.872 108.798 16.2107 108.478 15.656C108.179 15.1013 107.763 14.6747 107.23 14.376C106.718 14.0773 106.152 13.928 105.534 13.928C104.894 13.928 104.318 14.0773 103.806 14.376C103.294 14.6747 102.878 15.1013 102.558 15.656C102.238 16.2107 102.078 16.872 102.078 17.64ZM121.657 0.039999V25H116.825V0.039999H121.657ZM133.689 17.64C133.689 19.2827 133.347 20.68 132.665 21.832C132.003 22.9627 131.139 23.8267 130.073 24.424C129.027 25.0213 127.897 25.32 126.681 25.32C125.465 25.32 124.377 25.0107 123.417 24.392C122.457 23.7733 121.699 22.888 121.145 21.736C120.59 20.584 120.313 19.2187 120.313 17.64C120.313 16.04 120.59 14.6747 121.145 13.544C121.699 12.392 122.457 11.5067 123.417 10.888C124.377 10.2693 125.465 9.96 126.681 9.96C127.897 9.96 129.027 10.2587 130.073 10.856C131.139 11.4533 132.003 12.3173 132.665 13.448C133.347 14.5787 133.689 15.976 133.689 17.64ZM128.601 17.64C128.601 16.872 128.441 16.2107 128.121 15.656C127.801 15.08 127.374 14.6427 126.841 14.344C126.307 14.024 125.721 13.864 125.081 13.864C124.526 13.864 123.982 14.0133 123.449 14.312C122.937 14.6107 122.51 15.048 122.169 15.624C121.827 16.1787 121.657 16.8507 121.657 17.64C121.657 18.4293 121.827 19.112 122.169 19.688C122.51 20.2427 122.937 20.6693 123.449 20.968C123.982 21.2667 124.526 21.416 125.081 21.416C125.721 21.416 126.307 21.2667 126.841 20.968C127.374 20.648 127.801 20.2107 128.121 19.656C128.441 19.08 128.601 18.408 128.601 17.64ZM136.607 0.039999H141.471V25H136.607V0.039999ZM152.72 25.32C151.013 25.32 149.53 25.0107 148.272 24.392C147.034 23.752 146.074 22.856 145.392 21.704C144.709 20.552 144.368 19.1973 144.368 17.64C144.368 16.0613 144.698 14.696 145.36 13.544C146.021 12.392 146.97 11.5067 148.208 10.888C149.466 10.2693 150.949 9.96 152.656 9.96C154.362 9.96 155.802 10.2587 156.976 10.856C158.149 11.432 159.045 12.2747 159.664 13.384C160.282 14.4933 160.592 15.8373 160.592 17.416C160.592 17.6507 160.592 17.8853 160.592 18.12C160.592 18.3333 160.57 18.5147 160.528 18.664H147.088V15.976H156.176L155.024 17.448C155.13 17.2987 155.216 17.1173 155.28 16.904C155.365 16.6693 155.408 16.4773 155.408 16.328C155.408 15.688 155.29 15.1333 155.056 14.664C154.821 14.1947 154.49 13.832 154.064 13.576C153.637 13.32 153.136 13.192 152.56 13.192C151.834 13.192 151.226 13.352 150.736 13.672C150.245 13.992 149.872 14.4827 149.616 15.144C149.381 15.784 149.253 16.5947 149.232 17.576C149.232 18.472 149.36 19.24 149.616 19.88C149.872 20.52 150.256 21.0107 150.768 21.352C151.28 21.672 151.909 21.832 152.656 21.832C153.509 21.832 154.234 21.672 154.832 21.352C155.45 21.032 155.941 20.552 156.304 19.912L160.624 20.968C159.856 22.4187 158.81 23.5067 157.488 24.232C156.186 24.9573 154.597 25.32 152.72 25.32ZM186.04 15.528V25H181.176V16.04C181.176 15.144 181.026 14.472 180.728 14.024C180.45 13.5547 179.981 13.32 179.319 13.32C178.893 13.32 178.509 13.4267 178.168 13.64C177.848 13.832 177.592 14.1307 177.4 14.536C177.229 14.9413 177.144 15.4427 177.144 16.04V25H172.28V16.04C172.28 15.144 172.13 14.472 171.832 14.024C171.554 13.5547 171.085 13.32 170.424 13.32C169.997 13.32 169.613 13.4267 169.272 13.64C168.952 13.832 168.696 14.1307 168.504 14.536C168.333 14.9413 168.248 15.4427 168.248 16.04V25H163.576V10.28H168.248V12.456C168.653 11.6667 169.208 11.048 169.911 10.6C170.637 10.152 171.501 9.928 172.504 9.928C173.656 9.928 174.573 10.1413 175.256 10.568C175.938 10.9733 176.429 11.5707 176.728 12.36C177.261 11.592 177.922 10.9947 178.712 10.568C179.501 10.1413 180.397 9.928 181.4 9.928C182.552 9.928 183.458 10.152 184.12 10.6C184.802 11.0267 185.293 11.656 185.592 12.488C185.89 13.32 186.04 14.3333 186.04 15.528ZM190.626 19.656C191.372 20.2747 192.044 20.7653 192.641 21.128C193.26 21.4693 193.804 21.7147 194.274 21.864C194.743 21.992 195.148 22.056 195.49 22.056C195.98 22.056 196.343 21.9493 196.578 21.736C196.812 21.5227 196.93 21.2453 196.93 20.904C196.93 20.584 196.834 20.3173 196.642 20.104C196.45 19.8693 196.119 19.6453 195.65 19.432C195.202 19.2187 194.583 18.9947 193.794 18.76C193.09 18.504 192.418 18.2053 191.778 17.864C191.159 17.5013 190.647 17.0213 190.242 16.424C189.836 15.8267 189.634 15.0587 189.634 14.12C189.634 13.224 189.868 12.4667 190.338 11.848C190.828 11.2293 191.479 10.76 192.29 10.44C193.122 10.12 194.071 9.96 195.138 9.96C195.991 9.96 196.78 10.056 197.506 10.248C198.252 10.44 198.946 10.696 199.586 11.016C200.247 11.336 200.866 11.7093 201.442 12.136L199.714 15.272C199.095 14.696 198.391 14.2267 197.602 13.864C196.812 13.48 196.087 13.288 195.426 13.288C194.978 13.288 194.636 13.3733 194.402 13.544C194.188 13.7147 194.082 13.9387 194.082 14.216C194.082 14.536 194.21 14.8027 194.466 15.016C194.743 15.2293 195.127 15.432 195.618 15.624C196.13 15.7947 196.748 16.0187 197.474 16.296C198.242 16.5733 198.946 16.8933 199.586 17.256C200.247 17.6187 200.77 18.0773 201.154 18.632C201.559 19.1867 201.762 19.9227 201.762 20.84C201.762 22.4187 201.271 23.6133 200.29 24.424C199.33 25.2133 197.975 25.608 196.226 25.608C195.159 25.608 194.167 25.48 193.25 25.224C192.354 24.9893 191.522 24.6693 190.754 24.264C189.986 23.8373 189.271 23.368 188.61 22.856L190.626 19.656Z" fill="url(#paint0_linear_4968_5049)"/>
<defs>
<linearGradient id="paint0_linear_4968_5049" x1="0" y1="14" x2="203" y2="14" gradientUnits="userSpaceOnUse">
<stop stop-color="#EA4088"/>
<stop offset="1" stop-color="#885CB8"/>
</linearGradient>
</defs>
</svg>
