<svg width="21" height="20" viewBox="0 0 21 20" fill="none" xmlns="http://www.w3.org/2000/svg">
<g clip-path="url(#clip0_3722_26073)">
<path d="M13.5835 13.3334L10.2502 10M10.2502 10L6.91688 13.3334M10.2502 10V17.5M17.2419 15.325C18.0547 14.8819 18.6967 14.1808 19.0668 13.3322C19.4368 12.4837 19.5137 11.5361 19.2854 10.6389C19.057 9.74182 18.5365 8.94629 17.8058 8.3779C17.0751 7.80951 16.1759 7.50064 15.2502 7.50003H14.2002C13.948 6.5244 13.4778 5.61864 12.8252 4.85085C12.1725 4.08307 11.3542 3.47324 10.432 3.0672C9.50967 2.66116 8.50734 2.46949 7.50031 2.5066C6.49328 2.5437 5.50777 2.80861 4.61786 3.28142C3.72795 3.75422 2.9568 4.42261 2.3624 5.23635C1.76799 6.05008 1.36579 6.98797 1.18603 7.97952C1.00627 8.97107 1.05363 9.99047 1.32456 10.9611C1.59548 11.9317 2.08291 12.8282 2.75021 13.5834" stroke="white" stroke-width="1.66667" stroke-linecap="round" stroke-linejoin="round"/>
</g>
<defs>
<clipPath id="clip0_3722_26073">
<rect width="20" height="20" fill="white" transform="translate(0.25)"/>
</clipPath>
</defs>
</svg>
