<svg width="66" height="66" viewBox="0 0 66 66" fill="none" xmlns="http://www.w3.org/2000/svg">
<circle cx="33" cy="33" r="33" fill="#F7F7F7"/>
<path d="M35.2285 18.1071C36.0869 17.4639 37.1285 17.1659 38.1914 17.2672L38.4043 17.2926C39.5373 17.4539 40.5388 18.0461 41.2256 18.9635C42.5848 20.7755 42.3314 23.0559 40.5244 24.8209L40.085 25.2496H42.333C45.8709 25.2496 48.75 28.1287 48.75 31.6666V42.3336C48.7499 45.8714 45.8709 48.7496 42.333 48.7496H23.667C20.1292 48.7496 17.2501 45.8714 17.25 42.3336V31.6666C17.25 28.1287 20.1291 25.2496 23.667 25.2496H25.9463L25.5127 24.8219C24.602 23.922 24.0918 22.9048 23.9736 21.8961C23.8557 20.8894 24.1255 19.8728 24.8076 18.9635C25.4517 18.1044 26.3719 17.5291 27.418 17.3278L27.6289 17.2926C28.761 17.1276 29.8884 17.4199 30.8037 18.1071C31.6732 18.7586 32.3186 19.5901 32.7979 20.4459L33.0156 20.8356L33.2344 20.4459C33.7138 19.5912 34.3592 18.7585 35.2285 18.1071ZM19.417 42.3317C19.417 44.6751 21.3236 46.5817 23.667 46.5817H42.333C44.6764 46.5817 46.583 44.6751 46.583 42.3317V42.0817H19.417V42.3317ZM23.667 27.4156C21.3236 27.4156 19.417 29.3222 19.417 31.6656V39.9156H46.582V31.6656C46.582 29.3223 44.6754 27.4157 42.332 27.4156H34.2002L34.3291 27.7545C34.8698 29.1789 36.1911 29.8793 37.3457 30.2252C38.5056 30.5727 39.5587 30.5816 39.665 30.5817C40.2631 30.5817 40.749 31.0666 40.749 31.6656C40.7489 32.2646 40.263 32.7487 39.665 32.7487C37.8081 32.7486 34.8597 32.1061 33.1914 30.0973L32.999 29.8658L32.8066 30.0973C31.1383 32.105 28.1889 32.7487 26.332 32.7487C25.7342 32.7487 25.2492 32.2634 25.249 31.6656C25.249 31.0674 25.7335 30.5817 26.3311 30.5817H26.332C26.4488 30.5809 27.5013 30.564 28.6582 30.2125C29.8086 29.863 31.1228 29.1636 31.665 27.7555L31.7959 27.4156H23.667ZM37.7959 19.4166C37.342 19.4166 36.9004 19.5625 36.5303 19.8405C35.6273 20.5174 35.055 21.5034 34.6943 22.4049C34.3328 23.3089 34.1752 24.1496 34.1143 24.5592L34.1094 24.5895L34.1123 24.6198L34.1152 24.6481C34.1235 24.7524 34.1167 24.8536 34.0967 24.9498L34.0342 25.2516H34.3604C34.5701 25.2501 36.7159 25.1923 38.8008 23.4576L39.002 23.2848L39.0088 23.278C39.2792 23.0194 39.6401 22.5999 39.8154 22.0778C39.9846 21.5737 39.9764 20.9835 39.5781 20.3834L39.4932 20.2633L39.4219 20.1754C39.2458 19.9744 39.0043 19.7981 38.7471 19.6676C38.4528 19.5183 38.1141 19.4166 37.7959 19.4166ZM27.9385 19.4362H27.9355C27.3766 19.5162 26.8816 19.8103 26.542 20.2614L26.541 20.2623C26.0601 20.904 26.0382 21.5389 26.2236 22.0807C26.4036 22.6063 26.7737 23.0335 27.0615 23.3082V23.3092L27.0684 23.3151C29.1799 25.1873 31.4603 25.2496 31.6777 25.2496H32.002L31.9395 24.9489C31.9193 24.8523 31.9125 24.7508 31.9209 24.6461L31.9238 24.6188L31.9268 24.5875L31.9219 24.5573C31.8609 24.1503 31.7034 23.3108 31.3418 22.4069C30.9811 21.5053 30.4084 20.5181 29.5049 19.8405V19.8395C29.0519 19.5001 28.4975 19.3642 27.9385 19.4362Z" fill="url(#paint0_linear_4086_12658)" stroke="#F7F7F7" stroke-width="0.5"/>
<defs>
<linearGradient id="paint0_linear_4086_12658" x1="33" y1="16.9977" x2="33" y2="49" gradientUnits="userSpaceOnUse">
<stop stop-color="#EB3F88"/>
<stop offset="1" stop-color="#8F58B4"/>
</linearGradient>
</defs>
</svg>
