<svg width="280" height="65" viewBox="0 0 280 65" fill="none" xmlns="http://www.w3.org/2000/svg">
<path d="M3.648 14.864V5.2H38.784L17.6 40.72H36.48V50H0.576L21.44 14.864H3.648ZM39.798 35.28C39.798 32.1653 40.5233 29.456 41.974 27.152C43.4247 24.848 45.43 23.056 47.99 21.776C50.55 20.496 53.43 19.856 56.63 19.856C59.83 19.856 62.6887 20.496 65.206 21.776C67.766 23.056 69.7713 24.848 71.222 27.152C72.7153 29.456 73.462 32.1653 73.462 35.28C73.462 38.352 72.7153 41.04 71.222 43.344C69.7713 45.648 67.766 47.44 65.206 48.72C62.6887 50 59.83 50.64 56.63 50.64C53.43 50.64 50.55 50 47.99 48.72C45.43 47.44 43.4247 45.648 41.974 43.344C40.5233 41.04 39.798 38.352 39.798 35.28ZM49.718 35.28C49.718 36.816 50.038 38.1387 50.678 39.248C51.318 40.3147 52.15 41.1467 53.174 41.744C54.198 42.3413 55.35 42.64 56.63 42.64C57.8673 42.64 58.998 42.3413 60.022 41.744C61.0887 41.1467 61.9207 40.3147 62.518 39.248C63.158 38.1387 63.478 36.816 63.478 35.28C63.478 33.744 63.158 32.4213 62.518 31.312C61.9207 30.2027 61.0887 29.3493 60.022 28.752C58.998 28.1547 57.8673 27.856 56.63 27.856C55.35 27.856 54.198 28.1547 53.174 28.752C52.15 29.3493 51.318 30.2027 50.678 31.312C50.038 32.4213 49.718 33.744 49.718 35.28ZM77.548 35.28C77.548 32.1653 78.2733 29.456 79.724 27.152C81.1747 24.848 83.18 23.056 85.74 21.776C88.3 20.496 91.18 19.856 94.38 19.856C97.58 19.856 100.439 20.496 102.956 21.776C105.516 23.056 107.521 24.848 108.972 27.152C110.465 29.456 111.212 32.1653 111.212 35.28C111.212 38.352 110.465 41.04 108.972 43.344C107.521 45.648 105.516 47.44 102.956 48.72C100.439 50 97.58 50.64 94.38 50.64C91.18 50.64 88.3 50 85.74 48.72C83.18 47.44 81.1747 45.648 79.724 43.344C78.2733 41.04 77.548 38.352 77.548 35.28ZM87.468 35.28C87.468 36.816 87.788 38.1387 88.428 39.248C89.068 40.3147 89.9 41.1467 90.924 41.744C91.948 42.3413 93.1 42.64 94.38 42.64C95.6173 42.64 96.748 42.3413 97.772 41.744C98.8387 41.1467 99.6707 40.3147 100.268 39.248C100.908 38.1387 101.228 36.816 101.228 35.28C101.228 33.744 100.908 32.4213 100.268 31.312C99.6707 30.2027 98.8387 29.3493 97.772 28.752C96.748 28.1547 95.6173 27.856 94.38 27.856C93.1 27.856 91.948 28.1547 90.924 28.752C89.9 29.3493 89.068 30.2027 88.428 31.312C87.788 32.4213 87.468 33.744 87.468 35.28ZM161.954 31.056V50H152.226V32.08C152.226 30.288 151.927 28.944 151.33 28.048C150.775 27.1093 149.837 26.64 148.514 26.64C147.661 26.64 146.893 26.8533 146.21 27.28C145.57 27.664 145.058 28.2613 144.674 29.072C144.333 29.8827 144.162 30.8853 144.162 32.08V50H134.434V32.08C134.434 30.288 134.135 28.944 133.538 28.048C132.983 27.1093 132.045 26.64 130.722 26.64C129.869 26.64 129.101 26.8533 128.418 27.28C127.778 27.664 127.266 28.2613 126.882 29.072C126.541 29.8827 126.37 30.8853 126.37 32.08V50H117.026V20.56H126.37V24.912C127.181 23.3333 128.29 22.096 129.698 21.2C131.149 20.304 132.877 19.856 134.882 19.856C137.186 19.856 139.021 20.2827 140.386 21.136C141.751 21.9467 142.733 23.1413 143.33 24.72C144.397 23.184 145.719 21.9893 147.298 21.136C148.877 20.2827 150.669 19.856 152.674 19.856C154.978 19.856 156.791 20.304 158.114 21.2C159.479 22.0533 160.461 23.312 161.058 24.976C161.655 26.64 161.954 28.6667 161.954 31.056ZM184.502 50.64C181.089 50.64 178.123 50.0213 175.606 48.784C173.131 47.504 171.211 45.712 169.846 43.408C168.481 41.104 167.798 38.3947 167.798 35.28C167.798 32.1227 168.459 29.392 169.782 27.088C171.105 24.784 173.003 23.0133 175.478 21.776C177.995 20.5387 180.961 19.92 184.374 19.92C187.787 19.92 190.667 20.5173 193.014 21.712C195.361 22.864 197.153 24.5493 198.39 26.768C199.627 28.9867 200.246 31.6747 200.246 34.832C200.246 35.3013 200.246 35.7707 200.246 36.24C200.246 36.6667 200.203 37.0293 200.118 37.328H173.238V31.952H191.414L189.11 34.896C189.323 34.5973 189.494 34.2347 189.622 33.808C189.793 33.3387 189.878 32.9547 189.878 32.656C189.878 31.376 189.643 30.2667 189.174 29.328C188.705 28.3893 188.043 27.664 187.19 27.152C186.337 26.64 185.334 26.384 184.182 26.384C182.731 26.384 181.515 26.704 180.534 27.344C179.553 27.984 178.806 28.9653 178.294 30.288C177.825 31.568 177.569 33.1893 177.526 35.152C177.526 36.944 177.782 38.48 178.294 39.76C178.806 41.04 179.574 42.0213 180.598 42.704C181.622 43.344 182.881 43.664 184.374 43.664C186.081 43.664 187.531 43.344 188.726 42.704C189.963 42.064 190.945 41.104 191.67 39.824L200.31 41.936C198.774 44.8373 196.683 47.0133 194.038 48.464C191.435 49.9147 188.257 50.64 184.502 50.64ZM215.75 20.56V50H206.214V20.56H215.75ZM224.262 30.544C223.75 30.032 223.195 29.6267 222.598 29.328C222.043 29.0293 221.339 28.88 220.486 28.88C219.547 28.88 218.715 29.136 217.99 29.648C217.264 30.16 216.71 30.9067 216.326 31.888C215.942 32.8693 215.75 34.064 215.75 35.472L213.446 32.08C213.446 29.7333 213.894 27.6427 214.79 25.808C215.728 23.9733 216.944 22.5227 218.438 21.456C219.931 20.3893 221.488 19.856 223.11 19.856C224.176 19.856 225.2 20.0693 226.182 20.496C227.163 20.9227 227.91 21.52 228.422 22.288L224.262 30.544ZM232.526 0.079998H242.254V50H232.526V0.079998ZM279.92 20.56L260.72 64.08H250.992L258.16 47.632L245.424 20.56H256.048L265.584 44.176L260.592 44.112L270 20.56H279.92Z" fill="url(#paint0_linear_4107_4299)"/>
<path d="M3.648 14.864V5.2H38.784L17.6 40.72H36.48V50H0.576L21.44 14.864H3.648ZM39.798 35.28C39.798 32.1653 40.5233 29.456 41.974 27.152C43.4247 24.848 45.43 23.056 47.99 21.776C50.55 20.496 53.43 19.856 56.63 19.856C59.83 19.856 62.6887 20.496 65.206 21.776C67.766 23.056 69.7713 24.848 71.222 27.152C72.7153 29.456 73.462 32.1653 73.462 35.28C73.462 38.352 72.7153 41.04 71.222 43.344C69.7713 45.648 67.766 47.44 65.206 48.72C62.6887 50 59.83 50.64 56.63 50.64C53.43 50.64 50.55 50 47.99 48.72C45.43 47.44 43.4247 45.648 41.974 43.344C40.5233 41.04 39.798 38.352 39.798 35.28ZM49.718 35.28C49.718 36.816 50.038 38.1387 50.678 39.248C51.318 40.3147 52.15 41.1467 53.174 41.744C54.198 42.3413 55.35 42.64 56.63 42.64C57.8673 42.64 58.998 42.3413 60.022 41.744C61.0887 41.1467 61.9207 40.3147 62.518 39.248C63.158 38.1387 63.478 36.816 63.478 35.28C63.478 33.744 63.158 32.4213 62.518 31.312C61.9207 30.2027 61.0887 29.3493 60.022 28.752C58.998 28.1547 57.8673 27.856 56.63 27.856C55.35 27.856 54.198 28.1547 53.174 28.752C52.15 29.3493 51.318 30.2027 50.678 31.312C50.038 32.4213 49.718 33.744 49.718 35.28ZM77.548 35.28C77.548 32.1653 78.2733 29.456 79.724 27.152C81.1747 24.848 83.18 23.056 85.74 21.776C88.3 20.496 91.18 19.856 94.38 19.856C97.58 19.856 100.439 20.496 102.956 21.776C105.516 23.056 107.521 24.848 108.972 27.152C110.465 29.456 111.212 32.1653 111.212 35.28C111.212 38.352 110.465 41.04 108.972 43.344C107.521 45.648 105.516 47.44 102.956 48.72C100.439 50 97.58 50.64 94.38 50.64C91.18 50.64 88.3 50 85.74 48.72C83.18 47.44 81.1747 45.648 79.724 43.344C78.2733 41.04 77.548 38.352 77.548 35.28ZM87.468 35.28C87.468 36.816 87.788 38.1387 88.428 39.248C89.068 40.3147 89.9 41.1467 90.924 41.744C91.948 42.3413 93.1 42.64 94.38 42.64C95.6173 42.64 96.748 42.3413 97.772 41.744C98.8387 41.1467 99.6707 40.3147 100.268 39.248C100.908 38.1387 101.228 36.816 101.228 35.28C101.228 33.744 100.908 32.4213 100.268 31.312C99.6707 30.2027 98.8387 29.3493 97.772 28.752C96.748 28.1547 95.6173 27.856 94.38 27.856C93.1 27.856 91.948 28.1547 90.924 28.752C89.9 29.3493 89.068 30.2027 88.428 31.312C87.788 32.4213 87.468 33.744 87.468 35.28ZM161.954 31.056V50H152.226V32.08C152.226 30.288 151.927 28.944 151.33 28.048C150.775 27.1093 149.837 26.64 148.514 26.64C147.661 26.64 146.893 26.8533 146.21 27.28C145.57 27.664 145.058 28.2613 144.674 29.072C144.333 29.8827 144.162 30.8853 144.162 32.08V50H134.434V32.08C134.434 30.288 134.135 28.944 133.538 28.048C132.983 27.1093 132.045 26.64 130.722 26.64C129.869 26.64 129.101 26.8533 128.418 27.28C127.778 27.664 127.266 28.2613 126.882 29.072C126.541 29.8827 126.37 30.8853 126.37 32.08V50H117.026V20.56H126.37V24.912C127.181 23.3333 128.29 22.096 129.698 21.2C131.149 20.304 132.877 19.856 134.882 19.856C137.186 19.856 139.021 20.2827 140.386 21.136C141.751 21.9467 142.733 23.1413 143.33 24.72C144.397 23.184 145.719 21.9893 147.298 21.136C148.877 20.2827 150.669 19.856 152.674 19.856C154.978 19.856 156.791 20.304 158.114 21.2C159.479 22.0533 160.461 23.312 161.058 24.976C161.655 26.64 161.954 28.6667 161.954 31.056ZM184.502 50.64C181.089 50.64 178.123 50.0213 175.606 48.784C173.131 47.504 171.211 45.712 169.846 43.408C168.481 41.104 167.798 38.3947 167.798 35.28C167.798 32.1227 168.459 29.392 169.782 27.088C171.105 24.784 173.003 23.0133 175.478 21.776C177.995 20.5387 180.961 19.92 184.374 19.92C187.787 19.92 190.667 20.5173 193.014 21.712C195.361 22.864 197.153 24.5493 198.39 26.768C199.627 28.9867 200.246 31.6747 200.246 34.832C200.246 35.3013 200.246 35.7707 200.246 36.24C200.246 36.6667 200.203 37.0293 200.118 37.328H173.238V31.952H191.414L189.11 34.896C189.323 34.5973 189.494 34.2347 189.622 33.808C189.793 33.3387 189.878 32.9547 189.878 32.656C189.878 31.376 189.643 30.2667 189.174 29.328C188.705 28.3893 188.043 27.664 187.19 27.152C186.337 26.64 185.334 26.384 184.182 26.384C182.731 26.384 181.515 26.704 180.534 27.344C179.553 27.984 178.806 28.9653 178.294 30.288C177.825 31.568 177.569 33.1893 177.526 35.152C177.526 36.944 177.782 38.48 178.294 39.76C178.806 41.04 179.574 42.0213 180.598 42.704C181.622 43.344 182.881 43.664 184.374 43.664C186.081 43.664 187.531 43.344 188.726 42.704C189.963 42.064 190.945 41.104 191.67 39.824L200.31 41.936C198.774 44.8373 196.683 47.0133 194.038 48.464C191.435 49.9147 188.257 50.64 184.502 50.64ZM215.75 20.56V50H206.214V20.56H215.75ZM224.262 30.544C223.75 30.032 223.195 29.6267 222.598 29.328C222.043 29.0293 221.339 28.88 220.486 28.88C219.547 28.88 218.715 29.136 217.99 29.648C217.264 30.16 216.71 30.9067 216.326 31.888C215.942 32.8693 215.75 34.064 215.75 35.472L213.446 32.08C213.446 29.7333 213.894 27.6427 214.79 25.808C215.728 23.9733 216.944 22.5227 218.438 21.456C219.931 20.3893 221.488 19.856 223.11 19.856C224.176 19.856 225.2 20.0693 226.182 20.496C227.163 20.9227 227.91 21.52 228.422 22.288L224.262 30.544ZM232.526 0.079998H242.254V50H232.526V0.079998ZM279.92 20.56L260.72 64.08H250.992L258.16 47.632L245.424 20.56H256.048L265.584 44.176L260.592 44.112L270 20.56H279.92Z" fill="white"/>
<defs>
<linearGradient id="paint0_linear_4107_4299" x1="0" y1="28" x2="280" y2="28" gradientUnits="userSpaceOnUse">
<stop stop-color="#E5408A"/>
<stop offset="1" stop-color="#845CBA"/>
</linearGradient>
</defs>
</svg>
