<svg width="385" height="34" viewBox="0 0 385 34" fill="none" xmlns="http://www.w3.org/2000/svg">
<path d="M1.824 8.432V3.6H19.392L8.8 21.36H18.24V26H0.288L10.72 8.432H1.824ZM19.899 18.64C19.899 17.0827 20.2617 15.728 20.987 14.576C21.7123 13.424 22.715 12.528 23.995 11.888C25.275 11.248 26.715 10.928 28.315 10.928C29.915 10.928 31.3443 11.248 32.603 11.888C33.883 12.528 34.8857 13.424 35.611 14.576C36.3577 15.728 36.731 17.0827 36.731 18.64C36.731 20.176 36.3577 21.52 35.611 22.672C34.8857 23.824 33.883 24.72 32.603 25.36C31.3443 26 29.915 26.32 28.315 26.32C26.715 26.32 25.275 26 23.995 25.36C22.715 24.72 21.7123 23.824 20.987 22.672C20.2617 21.52 19.899 20.176 19.899 18.64ZM24.859 18.64C24.859 19.408 25.019 20.0693 25.339 20.624C25.659 21.1573 26.075 21.5733 26.587 21.872C27.099 22.1707 27.675 22.32 28.315 22.32C28.9337 22.32 29.499 22.1707 30.011 21.872C30.5443 21.5733 30.9603 21.1573 31.259 20.624C31.579 20.0693 31.739 19.408 31.739 18.64C31.739 17.872 31.579 17.2107 31.259 16.656C30.9603 16.1013 30.5443 15.6747 30.011 15.376C29.499 15.0773 28.9337 14.928 28.315 14.928C27.675 14.928 27.099 15.0773 26.587 15.376C26.075 15.6747 25.659 16.1013 25.339 16.656C25.019 17.2107 24.859 17.872 24.859 18.64ZM38.774 18.64C38.774 17.0827 39.1367 15.728 39.862 14.576C40.5873 13.424 41.59 12.528 42.87 11.888C44.15 11.248 45.59 10.928 47.19 10.928C48.79 10.928 50.2193 11.248 51.478 11.888C52.758 12.528 53.7607 13.424 54.486 14.576C55.2327 15.728 55.606 17.0827 55.606 18.64C55.606 20.176 55.2327 21.52 54.486 22.672C53.7607 23.824 52.758 24.72 51.478 25.36C50.2193 26 48.79 26.32 47.19 26.32C45.59 26.32 44.15 26 42.87 25.36C41.59 24.72 40.5873 23.824 39.862 22.672C39.1367 21.52 38.774 20.176 38.774 18.64ZM43.734 18.64C43.734 19.408 43.894 20.0693 44.214 20.624C44.534 21.1573 44.95 21.5733 45.462 21.872C45.974 22.1707 46.55 22.32 47.19 22.32C47.8087 22.32 48.374 22.1707 48.886 21.872C49.4193 21.5733 49.8353 21.1573 50.134 20.624C50.454 20.0693 50.614 19.408 50.614 18.64C50.614 17.872 50.454 17.2107 50.134 16.656C49.8353 16.1013 49.4193 15.6747 48.886 15.376C48.374 15.0773 47.8087 14.928 47.19 14.928C46.55 14.928 45.974 15.0773 45.462 15.376C44.95 15.6747 44.534 16.1013 44.214 16.656C43.894 17.2107 43.734 17.872 43.734 18.64ZM80.977 16.528V26H76.113V17.04C76.113 16.144 75.9637 15.472 75.665 15.024C75.3877 14.5547 74.9183 14.32 74.257 14.32C73.8303 14.32 73.4463 14.4267 73.105 14.64C72.785 14.832 72.529 15.1307 72.337 15.536C72.1663 15.9413 72.081 16.4427 72.081 17.04V26H67.217V17.04C67.217 16.144 67.0677 15.472 66.769 15.024C66.4917 14.5547 66.0223 14.32 65.361 14.32C64.9343 14.32 64.5503 14.4267 64.209 14.64C63.889 14.832 63.633 15.1307 63.441 15.536C63.2703 15.9413 63.185 16.4427 63.185 17.04V26H58.513V11.28H63.185V13.456C63.5903 12.6667 64.145 12.048 64.849 11.6C65.5743 11.152 66.4383 10.928 67.441 10.928C68.593 10.928 69.5103 11.1413 70.193 11.568C70.8757 11.9733 71.3663 12.5707 71.665 13.36C72.1983 12.592 72.8597 11.9947 73.649 11.568C74.4383 11.1413 75.3343 10.928 76.337 10.928C77.489 10.928 78.3957 11.152 79.057 11.6C79.7397 12.0267 80.2303 12.656 80.529 13.488C80.8277 14.32 80.977 15.3333 80.977 16.528ZM92.251 26.32C90.5443 26.32 89.0617 26.0107 87.803 25.392C86.5657 24.752 85.6057 23.856 84.923 22.704C84.2403 21.552 83.899 20.1973 83.899 18.64C83.899 17.0613 84.2297 15.696 84.891 14.544C85.5523 13.392 86.5017 12.5067 87.739 11.888C88.9977 11.2693 90.4803 10.96 92.187 10.96C93.8937 10.96 95.3337 11.2587 96.507 11.856C97.6803 12.432 98.5763 13.2747 99.195 14.384C99.8137 15.4933 100.123 16.8373 100.123 18.416C100.123 18.6507 100.123 18.8853 100.123 19.12C100.123 19.3333 100.102 19.5147 100.059 19.664H86.619V16.976H95.707L94.555 18.448C94.6617 18.2987 94.747 18.1173 94.811 17.904C94.8963 17.6693 94.939 17.4773 94.939 17.328C94.939 16.688 94.8217 16.1333 94.587 15.664C94.3523 15.1947 94.0217 14.832 93.595 14.576C93.1683 14.32 92.667 14.192 92.091 14.192C91.3657 14.192 90.7577 14.352 90.267 14.672C89.7763 14.992 89.403 15.4827 89.147 16.144C88.9123 16.784 88.7843 17.5947 88.763 18.576C88.763 19.472 88.891 20.24 89.147 20.88C89.403 21.52 89.787 22.0107 90.299 22.352C90.811 22.672 91.4403 22.832 92.187 22.832C93.0403 22.832 93.7657 22.672 94.363 22.352C94.9817 22.032 95.4723 21.552 95.835 20.912L100.155 21.968C99.387 23.4187 98.3417 24.5067 97.019 25.232C95.7177 25.9573 94.1283 26.32 92.251 26.32ZM107.875 11.28V26H103.107V11.28H107.875ZM112.131 16.272C111.875 16.016 111.597 15.8133 111.299 15.664C111.021 15.5147 110.669 15.44 110.243 15.44C109.773 15.44 109.357 15.568 108.995 15.824C108.632 16.08 108.355 16.4533 108.163 16.944C107.971 17.4347 107.875 18.032 107.875 18.736L106.723 17.04C106.723 15.8667 106.947 14.8213 107.395 13.904C107.864 12.9867 108.472 12.2613 109.219 11.728C109.965 11.1947 110.744 10.928 111.555 10.928C112.088 10.928 112.6 11.0347 113.091 11.248C113.581 11.4613 113.955 11.76 114.211 12.144L112.131 16.272ZM116.263 1.04H121.127V26H116.263V1.04ZM139.96 11.28L130.36 33.04H125.496L129.08 24.816L122.712 11.28H128.024L132.792 23.088L130.296 23.056L135 11.28H139.96ZM151.969 20.656C152.716 21.2747 153.388 21.7653 153.985 22.128C154.604 22.4693 155.148 22.7147 155.617 22.864C156.087 22.992 156.492 23.056 156.833 23.056C157.324 23.056 157.687 22.9493 157.921 22.736C158.156 22.5227 158.273 22.2453 158.273 21.904C158.273 21.584 158.177 21.3173 157.985 21.104C157.793 20.8693 157.463 20.6453 156.993 20.432C156.545 20.2187 155.927 19.9947 155.137 19.76C154.433 19.504 153.761 19.2053 153.121 18.864C152.503 18.5013 151.991 18.0213 151.585 17.424C151.18 16.8267 150.977 16.0587 150.977 15.12C150.977 14.224 151.212 13.4667 151.681 12.848C152.172 12.2293 152.823 11.76 153.633 11.44C154.465 11.12 155.415 10.96 156.481 10.96C157.335 10.96 158.124 11.056 158.849 11.248C159.596 11.44 160.289 11.696 160.929 12.016C161.591 12.336 162.209 12.7093 162.785 13.136L161.057 16.272C160.439 15.696 159.735 15.2267 158.945 14.864C158.156 14.48 157.431 14.288 156.769 14.288C156.321 14.288 155.98 14.3733 155.745 14.544C155.532 14.7147 155.425 14.9387 155.425 15.216C155.425 15.536 155.553 15.8027 155.809 16.016C156.087 16.2293 156.471 16.432 156.961 16.624C157.473 16.7947 158.092 17.0187 158.817 17.296C159.585 17.5733 160.289 17.8933 160.929 18.256C161.591 18.6187 162.113 19.0773 162.497 19.632C162.903 20.1867 163.105 20.9227 163.105 21.84C163.105 23.4187 162.615 24.6133 161.633 25.424C160.673 26.2133 159.319 26.608 157.569 26.608C156.503 26.608 155.511 26.48 154.593 26.224C153.697 25.9893 152.865 25.6693 152.097 25.264C151.329 24.8373 150.615 24.368 149.953 23.856L151.969 20.656ZM164.899 18.64C164.899 17.0827 165.262 15.728 165.987 14.576C166.712 13.424 167.715 12.528 168.995 11.888C170.275 11.248 171.715 10.928 173.315 10.928C174.915 10.928 176.344 11.248 177.603 11.888C178.883 12.528 179.886 13.424 180.611 14.576C181.358 15.728 181.731 17.0827 181.731 18.64C181.731 20.176 181.358 21.52 180.611 22.672C179.886 23.824 178.883 24.72 177.603 25.36C176.344 26 174.915 26.32 173.315 26.32C171.715 26.32 170.275 26 168.995 25.36C167.715 24.72 166.712 23.824 165.987 22.672C165.262 21.52 164.899 20.176 164.899 18.64ZM169.859 18.64C169.859 19.408 170.019 20.0693 170.339 20.624C170.659 21.1573 171.075 21.5733 171.587 21.872C172.099 22.1707 172.675 22.32 173.315 22.32C173.934 22.32 174.499 22.1707 175.011 21.872C175.544 21.5733 175.96 21.1573 176.259 20.624C176.579 20.0693 176.739 19.408 176.739 18.64C176.739 17.872 176.579 17.2107 176.259 16.656C175.96 16.1013 175.544 15.6747 175.011 15.376C174.499 15.0773 173.934 14.928 173.315 14.928C172.675 14.928 172.099 15.0773 171.587 15.376C171.075 15.6747 170.659 16.1013 170.339 16.656C170.019 17.2107 169.859 17.872 169.859 18.64ZM184.638 1.04H189.502V26H184.638V1.04ZM191.279 11.28H196.431L199.823 19.44L203.183 11.28H208.335L199.823 27.728L191.279 11.28ZM217.157 26.32C215.451 26.32 213.968 26.0107 212.709 25.392C211.472 24.752 210.512 23.856 209.829 22.704C209.147 21.552 208.805 20.1973 208.805 18.64C208.805 17.0613 209.136 15.696 209.797 14.544C210.459 13.392 211.408 12.5067 212.645 11.888C213.904 11.2693 215.387 10.96 217.093 10.96C218.8 10.96 220.24 11.2587 221.413 11.856C222.587 12.432 223.483 13.2747 224.101 14.384C224.72 15.4933 225.029 16.8373 225.029 18.416C225.029 18.6507 225.029 18.8853 225.029 19.12C225.029 19.3333 225.008 19.5147 224.965 19.664H211.525V16.976H220.613L219.461 18.448C219.568 18.2987 219.653 18.1173 219.717 17.904C219.803 17.6693 219.845 17.4773 219.845 17.328C219.845 16.688 219.728 16.1333 219.493 15.664C219.259 15.1947 218.928 14.832 218.501 14.576C218.075 14.32 217.573 14.192 216.997 14.192C216.272 14.192 215.664 14.352 215.173 14.672C214.683 14.992 214.309 15.4827 214.053 16.144C213.819 16.784 213.691 17.5947 213.669 18.576C213.669 19.472 213.797 20.24 214.053 20.88C214.309 21.52 214.693 22.0107 215.205 22.352C215.717 22.672 216.347 22.832 217.093 22.832C217.947 22.832 218.672 22.672 219.269 22.352C219.888 22.032 220.379 21.552 220.741 20.912L225.061 21.968C224.293 23.4187 223.248 24.5067 221.925 25.232C220.624 25.9573 219.035 26.32 217.157 26.32ZM228.813 20.656C229.56 21.2747 230.232 21.7653 230.829 22.128C231.448 22.4693 231.992 22.7147 232.461 22.864C232.93 22.992 233.336 23.056 233.677 23.056C234.168 23.056 234.53 22.9493 234.765 22.736C235 22.5227 235.117 22.2453 235.117 21.904C235.117 21.584 235.021 21.3173 234.829 21.104C234.637 20.8693 234.306 20.6453 233.837 20.432C233.389 20.2187 232.77 19.9947 231.981 19.76C231.277 19.504 230.605 19.2053 229.965 18.864C229.346 18.5013 228.834 18.0213 228.429 17.424C228.024 16.8267 227.821 16.0587 227.821 15.12C227.821 14.224 228.056 13.4667 228.525 12.848C229.016 12.2293 229.666 11.76 230.477 11.44C231.309 11.12 232.258 10.96 233.325 10.96C234.178 10.96 234.968 11.056 235.693 11.248C236.44 11.44 237.133 11.696 237.773 12.016C238.434 12.336 239.053 12.7093 239.629 13.136L237.901 16.272C237.282 15.696 236.578 15.2267 235.789 14.864C235 14.48 234.274 14.288 233.613 14.288C233.165 14.288 232.824 14.3733 232.589 14.544C232.376 14.7147 232.269 14.9387 232.269 15.216C232.269 15.536 232.397 15.8027 232.653 16.016C232.93 16.2293 233.314 16.432 233.805 16.624C234.317 16.7947 234.936 17.0187 235.661 17.296C236.429 17.5733 237.133 17.8933 237.773 18.256C238.434 18.6187 238.957 19.0773 239.341 19.632C239.746 20.1867 239.949 20.9227 239.949 21.84C239.949 23.4187 239.458 24.6133 238.477 25.424C237.517 26.2133 236.162 26.608 234.413 26.608C233.346 26.608 232.354 26.48 231.437 26.224C230.541 25.9893 229.709 25.6693 228.941 25.264C228.173 24.8373 227.458 24.368 226.797 23.856L228.813 20.656ZM255.945 21.392C255.945 21.776 256.041 22.1067 256.233 22.384C256.425 22.64 256.681 22.8427 257.001 22.992C257.321 23.12 257.673 23.184 258.057 23.184C258.611 23.184 259.123 23.0667 259.593 22.832C260.062 22.5973 260.446 22.2453 260.745 21.776C261.043 21.3067 261.193 20.7307 261.193 20.048L261.705 21.968C261.705 22.9067 261.449 23.7067 260.937 24.368C260.425 25.008 259.763 25.4987 258.953 25.84C258.142 26.16 257.267 26.32 256.329 26.32C255.39 26.32 254.515 26.1493 253.705 25.808C252.915 25.4453 252.275 24.912 251.785 24.208C251.315 23.504 251.081 22.6507 251.081 21.648C251.081 20.24 251.582 19.1307 252.585 18.32C253.587 17.488 255.006 17.072 256.841 17.072C257.737 17.072 258.537 17.1573 259.241 17.328C259.966 17.4987 260.585 17.712 261.097 17.968C261.609 18.224 261.993 18.4907 262.249 18.768V20.912C261.737 20.528 261.139 20.24 260.457 20.048C259.795 19.8347 259.091 19.728 258.345 19.728C257.769 19.728 257.31 19.792 256.969 19.92C256.627 20.048 256.371 20.24 256.201 20.496C256.03 20.7307 255.945 21.0293 255.945 21.392ZM253.801 15.792L252.169 12.56C253.001 12.1547 254.003 11.7707 255.177 11.408C256.35 11.0453 257.63 10.864 259.017 10.864C260.318 10.864 261.481 11.056 262.505 11.44C263.529 11.8027 264.339 12.336 264.937 13.04C265.534 13.744 265.833 14.608 265.833 15.632V26H261.193V16.72C261.193 16.3573 261.129 16.048 261.001 15.792C260.894 15.5147 260.723 15.28 260.489 15.088C260.254 14.896 259.955 14.7573 259.593 14.672C259.251 14.5867 258.857 14.544 258.409 14.544C257.747 14.544 257.097 14.6187 256.457 14.768C255.838 14.9173 255.294 15.0987 254.825 15.312C254.355 15.504 254.014 15.664 253.801 15.792ZM269.451 1.04H274.315V26H269.451V1.04ZM278.076 1.04H282.94V26H278.076V1.04ZM295.43 18.64C295.43 17.0827 295.793 15.728 296.518 14.576C297.244 13.424 298.246 12.528 299.526 11.888C300.806 11.248 302.246 10.928 303.846 10.928C305.446 10.928 306.876 11.248 308.134 11.888C309.414 12.528 310.417 13.424 311.142 14.576C311.889 15.728 312.262 17.0827 312.262 18.64C312.262 20.176 311.889 21.52 311.142 22.672C310.417 23.824 309.414 24.72 308.134 25.36C306.876 26 305.446 26.32 303.846 26.32C302.246 26.32 300.806 26 299.526 25.36C298.246 24.72 297.244 23.824 296.518 22.672C295.793 21.52 295.43 20.176 295.43 18.64ZM300.39 18.64C300.39 19.408 300.55 20.0693 300.87 20.624C301.19 21.1573 301.606 21.5733 302.118 21.872C302.63 22.1707 303.206 22.32 303.846 22.32C304.465 22.32 305.03 22.1707 305.542 21.872C306.076 21.5733 306.492 21.1573 306.79 20.624C307.11 20.0693 307.27 19.408 307.27 18.64C307.27 17.872 307.11 17.2107 306.79 16.656C306.492 16.1013 306.076 15.6747 305.542 15.376C305.03 15.0773 304.465 14.928 303.846 14.928C303.206 14.928 302.63 15.0773 302.118 15.376C301.606 15.6747 301.19 16.1013 300.87 16.656C300.55 17.2107 300.39 17.872 300.39 18.64ZM313.857 11.28H323.905V15.28H313.857V11.28ZM323.361 5.68C323.148 5.40267 322.913 5.2 322.657 5.072C322.423 4.944 322.167 4.88 321.889 4.88C321.569 4.88 321.292 4.95467 321.057 5.104C320.844 5.25333 320.673 5.488 320.545 5.808C320.417 6.128 320.353 6.544 320.353 7.056V26H315.713V5.84C315.713 4.73067 315.916 3.78133 316.321 2.992C316.748 2.20267 317.367 1.59467 318.177 1.168C319.009 0.741332 320.033 0.527998 321.249 0.527998C321.996 0.527998 322.625 0.623998 323.137 0.815998C323.649 0.986665 324.087 1.2 324.449 1.456C324.812 1.69067 325.1 1.91467 325.313 2.128L323.361 5.68ZM334.035 11.28H343.891V15.28H334.035V11.28ZM336.627 6.16H341.267V26H336.627V6.16ZM350.815 1.04V26H345.951V1.04H350.815ZM355.519 17.04C355.519 16.1653 355.359 15.4933 355.039 15.024C354.719 14.5547 354.164 14.32 353.375 14.32C352.863 14.32 352.415 14.4373 352.031 14.672C351.647 14.8853 351.348 15.1947 351.135 15.6C350.921 15.984 350.815 16.464 350.815 17.04H349.983C349.983 15.8667 350.175 14.8107 350.559 13.872C350.943 12.912 351.519 12.1547 352.286 11.6C353.076 11.024 354.079 10.736 355.295 10.736C356.511 10.736 357.481 10.9493 358.207 11.376C358.953 11.8027 359.497 12.432 359.839 13.264C360.18 14.096 360.351 15.12 360.351 16.336V26H355.519V17.04ZM363.881 5.744C363.881 4.976 364.159 4.35733 364.713 3.888C365.268 3.39733 365.929 3.152 366.697 3.152C367.487 3.152 368.148 3.39733 368.681 3.888C369.236 4.35733 369.513 4.976 369.513 5.744C369.513 6.512 369.236 7.14133 368.681 7.632C368.148 8.12267 367.487 8.368 366.697 8.368C365.929 8.368 365.268 8.12267 364.713 7.632C364.159 7.14133 363.881 6.512 363.881 5.744ZM364.361 11.28H369.033V26H364.361V11.28ZM373.813 20.656C374.56 21.2747 375.232 21.7653 375.829 22.128C376.448 22.4693 376.992 22.7147 377.461 22.864C377.93 22.992 378.336 23.056 378.677 23.056C379.168 23.056 379.53 22.9493 379.765 22.736C380 22.5227 380.117 22.2453 380.117 21.904C380.117 21.584 380.021 21.3173 379.829 21.104C379.637 20.8693 379.306 20.6453 378.837 20.432C378.389 20.2187 377.77 19.9947 376.981 19.76C376.277 19.504 375.605 19.2053 374.965 18.864C374.346 18.5013 373.834 18.0213 373.429 17.424C373.024 16.8267 372.821 16.0587 372.821 15.12C372.821 14.224 373.056 13.4667 373.525 12.848C374.016 12.2293 374.666 11.76 375.477 11.44C376.309 11.12 377.258 10.96 378.325 10.96C379.178 10.96 379.968 11.056 380.693 11.248C381.44 11.44 382.133 11.696 382.773 12.016C383.434 12.336 384.053 12.7093 384.629 13.136L382.901 16.272C382.282 15.696 381.578 15.2267 380.789 14.864C380 14.48 379.274 14.288 378.613 14.288C378.165 14.288 377.824 14.3733 377.589 14.544C377.376 14.7147 377.269 14.9387 377.269 15.216C377.269 15.536 377.397 15.8027 377.653 16.016C377.93 16.2293 378.314 16.432 378.805 16.624C379.317 16.7947 379.936 17.0187 380.661 17.296C381.429 17.5733 382.133 17.8933 382.773 18.256C383.434 18.6187 383.957 19.0773 384.341 19.632C384.746 20.1867 384.949 20.9227 384.949 21.84C384.949 23.4187 384.458 24.6133 383.477 25.424C382.517 26.2133 381.162 26.608 379.413 26.608C378.346 26.608 377.354 26.48 376.437 26.224C375.541 25.9893 374.709 25.6693 373.941 25.264C373.173 24.8373 372.458 24.368 371.797 23.856L373.813 20.656Z" fill="url(#paint0_linear_4968_5050)"/>
<defs>
<linearGradient id="paint0_linear_4968_5050" x1="0" y1="15" x2="386" y2="15" gradientUnits="userSpaceOnUse">
<stop stop-color="#EA4088"/>
<stop offset="1" stop-color="#885CB8"/>
</linearGradient>
</defs>
</svg>
