<svg width="24" height="20" viewBox="0 0 24 20" fill="none" xmlns="http://www.w3.org/2000/svg">
<path d="M24 1.00195C24 1.55195 23.55 2.00195 23 2.00195H1C0.45 2.00195 0 1.55195 0 1.00195C0 0.451953 0.45 0.00195312 1 0.00195312H23C23.55 0.00195312 24 0.451953 24 1.00195ZM7 18.002H1C0.45 18.002 0 18.452 0 19.002C0 19.552 0.45 20.002 1 20.002H7C7.55 20.002 8 19.552 8 19.002C8 18.452 7.55 18.002 7 18.002ZM15 9.00196H1C0.45 9.00196 0 9.45196 0 10.002C0 10.552 0.45 11.002 1 11.002H15C15.55 11.002 16 10.552 16 10.002C16 9.45196 15.55 9.00196 15 9.00196Z" fill="black"/>
</svg>
