<svg width="607" height="495" viewBox="0 0 607 495" fill="none" xmlns="http://www.w3.org/2000/svg">
<path d="M56.7273 186.463C58.5946 185.69 59.3673 184.208 59.3673 184.208L58.0312 182.645C58.0312 182.645 57.2746 184.127 55.3912 184.901L56.7273 186.463Z" fill="url(#paint0_linear_3554_2168)"/>
<path d="M60.3265 210.568C62.0167 210.955 63.2723 210.294 63.2723 210.294L63.1113 208.538C63.1113 208.538 61.8557 209.182 60.1655 208.812L60.3265 210.568Z" fill="url(#paint1_linear_3554_2168)"/>
<path d="M83.4159 218.511C84.9291 220.879 87.1344 221.572 87.1344 221.572L88.9535 219.365C88.9535 219.365 86.7481 218.672 85.2349 216.304L83.4159 218.511Z" fill="url(#paint2_linear_3554_2168)"/>
<path d="M100.575 215.191C103.714 216.029 106.128 214.885 106.128 214.885L105.951 211.582C105.951 211.582 103.537 212.71 100.398 211.888L100.575 215.191Z" fill="url(#paint3_linear_3554_2168)"/>
<path d="M110.315 219.301C110.814 221.75 112.424 223.022 112.424 223.022L114.629 221.766C114.629 221.766 113.019 220.493 112.52 218.044L110.315 219.301Z" fill="url(#paint4_linear_3554_2168)"/>
<path d="M141.511 227.082C143.539 227.292 144.923 226.357 144.923 226.357L144.489 224.327C144.489 224.327 143.104 225.262 141.076 225.052L141.511 227.082Z" fill="url(#paint5_linear_3554_2168)"/>
<path d="M173.235 197.568C175.714 199.324 178.193 199.13 178.193 199.13L179.11 196.182C179.11 196.182 176.631 196.391 174.152 194.619L173.235 197.568Z" fill="url(#paint6_linear_3554_2168)"/>
<path d="M194.176 177.505C196.301 179.116 198.49 179.019 198.49 179.019L199.391 176.458C199.391 176.458 197.202 176.57 195.077 174.943L194.192 177.505H194.176Z" fill="url(#paint7_linear_3554_2168)"/>
<path d="M566.372 249.939L562.049 246.933L564.069 244.022L568.392 247.028L566.372 249.939Z" fill="url(#paint8_linear_3554_2168)"/>
<path d="M562.301 246.535C564.168 248.984 566.631 249.548 566.631 249.548L568.418 246.986C568.418 246.986 565.955 246.422 564.088 243.973L562.301 246.535Z" fill="url(#paint9_linear_3554_2168)"/>
<path d="M599.836 218.577C602.395 220.736 605.132 220.752 605.132 220.752L606.419 217.61C606.419 217.61 603.683 217.61 601.123 215.435L599.836 218.577Z" fill="url(#paint10_linear_3554_2168)"/>
<path d="M583.087 194.49C584.246 195.957 585.759 196.279 585.759 196.279L586.821 194.7C586.821 194.7 585.308 194.394 584.149 192.911L583.087 194.49Z" fill="url(#paint11_linear_3554_2168)"/>
<path d="M545.846 191.975C547.584 191.669 548.518 190.573 548.518 190.573L547.681 188.978C547.681 188.978 546.747 190.09 545.009 190.38L545.846 191.975Z" fill="url(#paint12_linear_3554_2168)"/>
<path d="M555.702 175.3C558.439 177.185 561.159 176.927 561.159 176.927L562.125 173.689C562.125 173.689 559.405 173.946 556.668 172.061L555.702 175.3Z" fill="url(#paint13_linear_3554_2168)"/>
<path d="M564.456 152.225C567.579 152.74 569.833 151.419 569.833 151.419L569.366 148.229C569.366 148.229 567.128 149.55 563.989 149.035L564.456 152.225Z" fill="url(#paint14_linear_3554_2168)"/>
<path d="M530.861 138.95C531.665 140.497 532.969 141.044 532.969 141.044L534.209 139.788C534.209 139.788 532.889 139.24 532.1 137.693L530.861 138.95Z" fill="url(#paint15_linear_3554_2168)"/>
<path d="M284.848 112.622C284.881 115.812 286.571 117.794 286.571 117.794L289.629 116.779C289.629 116.779 287.939 114.797 287.907 111.607L284.848 112.622Z" fill="url(#paint16_linear_3554_2168)"/>
<path d="M270.39 78.4798C271.42 80.7516 273.271 81.6377 273.271 81.6377L275.138 79.9298C275.138 79.9298 273.287 79.0437 272.257 76.7719L270.39 78.4798Z" fill="url(#paint17_linear_3554_2168)"/>
<path d="M246.858 74.6313C249.272 73.2135 250.045 71.0545 250.045 71.0545L247.92 69.1533C247.92 69.1533 247.147 71.3123 244.733 72.7302L246.858 74.6313Z" fill="url(#paint18_linear_3554_2168)"/>
<path d="M215.252 39.0858C215.59 41.5348 217.104 42.9043 217.104 42.9043L219.357 41.8087C219.357 41.8087 217.844 40.4553 217.506 37.9902L215.252 39.0858Z" fill="url(#paint19_linear_3554_2168)"/>
<path d="M201.473 2.27225C203.018 4.76958 205.304 5.51074 205.304 5.51074L207.22 3.23897C207.22 3.23897 204.934 2.48169 203.389 0.000468731L201.473 2.27225Z" fill="url(#paint20_linear_3554_2168)"/>
<path d="M398.02 494.861C400.853 494.829 402.64 493.315 402.64 493.315L401.723 490.576C401.723 490.576 399.952 492.09 397.103 492.122L398.02 494.861Z" fill="url(#paint21_linear_3554_2168)"/>
<path d="M377.326 482.115C380.256 483.404 382.767 482.679 382.767 482.679L383.105 479.44C383.105 479.44 380.578 480.165 377.664 478.876L377.326 482.115Z" fill="url(#paint22_linear_3554_2168)"/>
<path d="M378.992 474.255C382.018 473.079 383.29 470.743 383.29 470.743L381.197 468.197C381.197 468.197 379.926 470.534 376.899 471.71L378.992 474.255Z" fill="url(#paint23_linear_3554_2168)"/>
<path d="M342.606 437.666C342.719 441.162 344.634 443.305 344.634 443.305L347.966 442.096C347.966 442.096 346.051 439.953 345.938 436.457L342.606 437.666Z" fill="url(#paint24_linear_3554_2168)"/>
<path d="M355.085 393.339C355.407 395.369 356.679 396.464 356.679 396.464L358.53 395.514C358.53 395.514 357.258 394.418 356.936 392.388L355.085 393.339Z" fill="url(#paint25_linear_3554_2168)"/>
<path d="M378.161 384.831C377.662 387.377 378.693 389.23 378.693 389.23L381.3 388.908C381.3 388.908 380.27 387.055 380.769 384.509L378.161 384.831Z" fill="url(#paint26_linear_3554_2168)"/>
<path d="M218.499 491.367C221.719 492.237 224.198 491.093 224.198 491.093L224.037 487.709C224.037 487.709 221.558 488.853 218.338 487.983L218.499 491.367Z" fill="url(#paint27_linear_3554_2168)"/>
<path d="M180.522 474.595C183.742 474.225 185.561 472.291 185.561 472.291L184.192 469.294C184.192 469.294 182.373 471.228 179.154 471.598L180.522 474.595Z" fill="url(#paint28_linear_3554_2168)"/>
<path d="M175.971 450.376C177.307 452.1 179.046 452.471 179.046 452.471L180.285 450.65C180.285 450.65 178.547 450.263 177.211 448.556L175.971 450.376Z" fill="url(#paint29_linear_3554_2168)"/>
<path d="M179.484 420.893C180.031 422.746 181.335 423.616 181.335 423.616L182.945 422.521C182.945 422.521 181.641 421.651 181.094 419.798L179.484 420.893Z" fill="url(#paint30_linear_3554_2168)"/>
<path d="M397.26 120.843C397.195 124.049 398.853 126.095 398.853 126.095L401.976 125.145C401.976 125.145 400.318 123.098 400.383 119.892L397.26 120.843Z" fill="url(#paint31_linear_3554_2168)"/>
<path d="M389.493 143.239C388.913 145.655 389.831 147.492 389.831 147.492L392.342 147.299C392.342 147.299 391.424 145.478 392.004 143.045L389.493 143.239Z" fill="url(#paint32_linear_3554_2168)"/>
<path d="M401.974 148.376C404.839 149.326 407.141 148.392 407.141 148.392V145.314C407.141 145.314 404.855 146.233 401.974 145.298V148.376Z" fill="url(#paint33_linear_3554_2168)"/>
<path d="M416.646 174.092C417.049 175.752 418.175 176.589 418.175 176.589L419.656 175.687C419.656 175.687 418.53 174.849 418.127 173.19L416.646 174.092Z" fill="url(#paint34_linear_3554_2168)"/>
<path d="M453.188 176.317C454.749 175.447 455.281 174.078 455.281 174.078L453.944 172.837C453.944 172.837 453.413 174.207 451.852 175.077L453.188 176.317Z" fill="url(#paint35_linear_3554_2168)"/>
<path d="M342.402 218.238C344.801 216.917 345.622 214.823 345.622 214.823L343.593 212.905C343.593 212.905 342.772 215 340.374 216.321L342.402 218.238Z" fill="url(#paint36_linear_3554_2168)"/>
<path d="M379.946 205.138C379.946 207.732 381.315 209.359 381.315 209.359L383.81 208.538C383.81 208.538 382.441 206.91 382.441 204.316L379.946 205.138Z" fill="url(#paint37_linear_3554_2168)"/>
<path d="M312.912 269.263C315.069 271.068 317.371 271.052 317.371 271.052L318.434 268.409C318.434 268.409 316.132 268.409 313.975 266.621L312.912 269.263Z" fill="url(#paint38_linear_3554_2168)"/>
<path d="M328.244 245.562C330.772 247.705 333.508 247.705 333.508 247.705L334.78 244.579C334.78 244.579 332.06 244.579 329.516 242.436L328.244 245.562Z" fill="url(#paint39_linear_3554_2168)"/>
<path d="M329.63 234.366C331.755 233.142 332.463 231.241 332.463 231.241L330.612 229.565C330.612 229.565 329.92 231.466 327.779 232.691L329.63 234.366Z" fill="url(#paint40_linear_3554_2168)"/>
<path d="M323.546 214.274C326.524 214.049 328.294 212.341 328.294 212.341L327.151 209.521C327.151 209.521 325.397 211.229 322.403 211.455L323.546 214.274Z" fill="url(#paint41_linear_3554_2168)"/>
<path d="M243.725 367.755C246.51 366.225 247.444 363.792 247.444 363.792L245.094 361.585C245.094 361.585 244.16 364.017 241.375 365.548L243.725 367.755Z" fill="url(#paint42_linear_3554_2168)"/>
<path d="M218.025 344.953C220.311 345.098 221.824 343.987 221.824 343.987L221.245 341.731C221.245 341.731 219.731 342.843 217.446 342.698L218.025 344.953Z" fill="url(#paint43_linear_3554_2168)"/>
<path d="M189.013 363.322C189.496 366.737 191.605 368.639 191.605 368.639L194.76 367.108C194.76 367.108 192.651 365.207 192.168 361.791L189.013 363.322Z" fill="url(#paint44_linear_3554_2168)"/>
<path d="M148.626 358.553C150.01 360.567 151.942 361.099 151.942 361.099L153.455 359.133C153.455 359.133 151.523 358.601 150.139 356.587L148.626 358.553Z" fill="url(#paint45_linear_3554_2168)"/>
<path d="M136.768 389.781C139.633 391.762 142.482 391.505 142.482 391.505L143.496 388.121C143.496 388.121 140.647 388.379 137.782 386.397L136.768 389.781Z" fill="url(#paint46_linear_3554_2168)"/>
<path d="M114.382 396.964C116.796 397.222 118.438 396.11 118.438 396.11L117.923 393.693C117.923 393.693 116.281 394.805 113.867 394.547L114.382 396.964Z" fill="url(#paint47_linear_3554_2168)"/>
<path d="M247.237 138.657C249.072 140.575 251.245 140.816 251.245 140.816L252.517 138.432C252.517 138.432 250.343 138.19 248.508 136.273L247.237 138.657Z" fill="url(#paint48_linear_3554_2168)"/>
<path d="M284.554 153.562C287.114 152.225 288.015 150.034 288.015 150.034L285.922 147.988C285.922 147.988 285.021 150.179 282.461 151.516L284.554 153.562Z" fill="url(#paint49_linear_3554_2168)"/>
<path d="M303.538 152.755C304.456 154.27 305.84 154.737 305.84 154.737L307.015 153.367C307.015 153.367 305.631 152.9 304.713 151.386L303.538 152.755Z" fill="url(#paint50_linear_3554_2168)"/>
<path d="M319.724 200.19C320.127 201.93 321.286 202.8 321.286 202.8L322.831 201.865C322.831 201.865 321.672 200.979 321.27 199.255L319.724 200.19Z" fill="url(#paint51_linear_3554_2168)"/>
<path d="M-1.23082 372.832C-1.47229 375.668 -0.136178 377.585 -0.136178 377.585L2.68089 376.941C2.68089 376.941 1.34478 375.024 1.58624 372.188L-1.23082 372.832Z" fill="url(#paint52_linear_3554_2168)"/>
<path d="M7.66748 350.503C9.14845 352.243 10.9997 352.549 10.9997 352.549L12.207 350.568C12.207 350.568 10.3558 350.261 8.87479 348.521L7.66748 350.503Z" fill="url(#paint53_linear_3554_2168)"/>
<path d="M20.1068 378.648C19.6721 380.92 20.6058 382.563 20.6058 382.563L22.9238 382.273C22.9238 382.273 22.0063 380.614 22.4248 378.358L20.1068 378.648Z" fill="url(#paint54_linear_3554_2168)"/>
<path d="M439.639 270.552C442.005 270.021 443.212 268.425 443.212 268.425L441.957 266.299C441.957 266.299 440.749 267.894 438.383 268.425L439.639 270.552Z" fill="url(#paint55_linear_3554_2168)"/>
<path d="M469.916 280.639C472.411 280.349 473.811 278.851 473.811 278.851L472.749 276.531C472.749 276.531 471.332 278.029 468.853 278.319L469.916 280.639Z" fill="url(#paint56_linear_3554_2168)"/>
<path d="M446.826 329.989C447.421 331.841 448.757 332.695 448.757 332.695L450.367 331.551C450.367 331.551 449.015 330.697 448.435 328.845L446.826 329.989Z" fill="url(#paint57_linear_3554_2168)"/>
<path d="M313.638 200.654L310.66 200.583L310.709 198.569L313.686 198.641L313.638 200.654Z" fill="url(#paint58_linear_3554_2168)"/>
<path d="M310.622 200.292C312.263 200.872 313.6 200.357 313.6 200.357L313.648 198.584C313.648 198.584 312.312 199.084 310.67 198.52L310.622 200.292Z" fill="url(#paint59_linear_3554_2168)"/>
<path d="M293.229 165.449L289.428 165.115L289.652 162.563L293.453 162.897L293.229 165.449Z" fill="url(#paint60_linear_3554_2168)"/>
<path d="M289.428 164.781C291.473 165.651 293.227 165.119 293.227 165.119L293.421 162.863C293.421 162.863 291.666 163.395 289.622 162.525L289.428 164.781Z" fill="url(#paint61_linear_3554_2168)"/>
<path d="M330.001 159.868L328.787 156.367L331.144 155.548L332.358 159.049L330.001 159.868Z" fill="url(#paint62_linear_3554_2168)"/>
<path d="M329.059 156.305C329.107 158.464 330.267 159.802 330.267 159.802L332.343 159.077C332.343 159.077 331.168 157.739 331.136 155.58L329.059 156.305Z" fill="url(#paint63_linear_3554_2168)"/>
<path d="M403.272 343.457C405.155 343.457 406.33 342.474 406.33 342.474L405.751 340.654C405.751 340.654 404.559 341.636 402.692 341.636L403.272 343.457Z" fill="url(#paint64_linear_3554_2168)"/>
<path d="M411.523 306.884C413.213 308.963 415.386 309.382 415.386 309.382L416.867 307.094C416.867 307.094 414.694 306.675 413.004 304.597L411.523 306.884Z" fill="url(#paint65_linear_3554_2168)"/>
<path d="M412.978 281.698C412.978 285.033 414.733 287.112 414.733 287.112L417.952 286.065C417.952 286.065 416.198 283.97 416.198 280.651L412.978 281.698Z" fill="url(#paint66_linear_3554_2168)"/>
<path d="M151.552 286.214C153.87 285.376 154.885 283.636 154.885 283.636L153.355 281.654C153.355 281.654 152.341 283.394 150.023 284.232L151.552 286.214Z" fill="url(#paint67_linear_3554_2168)"/>
<path d="M100.988 262.804C103.563 263.191 105.398 262.079 105.398 262.079L104.964 259.453C104.964 259.453 103.129 260.565 100.553 260.178L100.988 262.804Z" fill="url(#paint68_linear_3554_2168)"/>
<path d="M95.0408 234.463C97.0691 232.868 97.5037 230.789 97.5037 230.789L95.3305 229.323C95.3305 229.323 94.8959 231.402 92.8676 232.997L95.0408 234.463Z" fill="url(#paint69_linear_3554_2168)"/>
<path d="M304.113 180.408C306.367 179.635 307.365 177.959 307.365 177.959L305.916 176.026C305.916 176.026 304.918 177.701 302.665 178.475L304.113 180.408Z" fill="url(#paint70_linear_3554_2168)"/>
<path d="M337.812 188.123C339.615 188.881 341.144 188.397 341.144 188.397L341.305 186.416C341.305 186.416 339.776 186.899 337.973 186.142L337.812 188.123Z" fill="url(#paint71_linear_3554_2168)"/>
<path d="M362.382 162.585C364.475 163.6 366.326 163.117 366.326 163.117L366.648 160.781C366.648 160.781 364.797 161.248 362.704 160.249L362.382 162.585Z" fill="url(#paint72_linear_3554_2168)"/>
<path d="M209.1 354.205C211.579 355.059 213.591 354.27 213.591 354.27L213.64 351.595C213.64 351.595 211.628 352.368 209.149 351.53L209.1 354.205Z" fill="url(#paint73_linear_3554_2168)"/>
<path d="M224.823 373.733C226.996 372.879 227.93 371.203 227.93 371.203L226.433 369.367C226.433 369.367 225.499 371.042 223.326 371.896L224.823 373.733Z" fill="url(#paint74_linear_3554_2168)"/>
<path d="M241.298 401.556C242.022 403.748 243.632 404.747 243.632 404.747L245.515 403.361C245.515 403.361 243.905 402.362 243.181 400.171L241.298 401.556Z" fill="url(#paint75_linear_3554_2168)"/>
<path d="M252.483 398.575C252.08 401.281 253.255 403.199 253.255 403.199L255.992 402.731C255.992 402.731 254.817 400.814 255.219 398.107L252.483 398.575Z" fill="url(#paint76_linear_3554_2168)"/>
<defs>
<linearGradient id="paint0_linear_3554_2168" x1="58.5408" y1="184.493" x2="55.6471" y2="183.044" gradientUnits="userSpaceOnUse">
<stop stop-color="#F8B54A"/>
<stop offset="1" stop-color="#F8A629"/>
</linearGradient>
<linearGradient id="paint1_linear_3554_2168" x1="62.9752" y1="209.567" x2="59.8944" y2="208.024" gradientUnits="userSpaceOnUse">
<stop stop-color="#B5188D"/>
<stop offset="1" stop-color="#4E69AE"/>
</linearGradient>
<linearGradient id="paint2_linear_3554_2168" x1="88.2815" y1="219.383" x2="83.5019" y2="216.989" gradientUnits="userSpaceOnUse">
<stop stop-color="#F44274"/>
<stop offset="1" stop-color="#E51F9A"/>
</linearGradient>
<linearGradient id="paint3_linear_3554_2168" x1="106.279" y1="211.795" x2="101.087" y2="215.634" gradientUnits="userSpaceOnUse">
<stop stop-color="#6DD0E7"/>
<stop offset="1" stop-color="#01A7DB"/>
</linearGradient>
<linearGradient id="paint4_linear_3554_2168" x1="114.42" y1="220.871" x2="109.986" y2="218.65" gradientUnits="userSpaceOnUse">
<stop stop-color="#F71873"/>
<stop offset="1" stop-color="#F8A629"/>
</linearGradient>
<linearGradient id="paint5_linear_3554_2168" x1="144.52" y1="225.842" x2="140.936" y2="224.047" gradientUnits="userSpaceOnUse">
<stop stop-color="#F44274"/>
<stop offset="1" stop-color="#E51F9A"/>
</linearGradient>
<linearGradient id="paint6_linear_3554_2168" x1="178.393" y1="197.423" x2="173.355" y2="194.9" gradientUnits="userSpaceOnUse">
<stop stop-color="#BE1E68"/>
<stop offset="1" stop-color="#B5188D"/>
</linearGradient>
<linearGradient id="paint7_linear_3554_2168" x1="198.67" y1="177.379" x2="194.294" y2="175.187" gradientUnits="userSpaceOnUse">
<stop stop-color="#FBE422"/>
<stop offset="1" stop-color="#C8D92B"/>
</linearGradient>
<linearGradient id="paint8_linear_3554_2168" x1="566.74" y1="249.847" x2="562.95" y2="245.124" gradientUnits="userSpaceOnUse">
<stop stop-color="#F44274"/>
<stop offset="1" stop-color="#E51F9A"/>
</linearGradient>
<linearGradient id="paint9_linear_3554_2168" x1="567.002" y1="249.05" x2="563.282" y2="244.415" gradientUnits="userSpaceOnUse">
<stop stop-color="#F44274"/>
<stop offset="1" stop-color="#E51F9A"/>
</linearGradient>
<linearGradient id="paint10_linear_3554_2168" x1="605.01" y1="220.671" x2="600.846" y2="215.483" gradientUnits="userSpaceOnUse">
<stop stop-color="#B4DF86"/>
<stop offset="1" stop-color="#84C743"/>
</linearGradient>
<linearGradient id="paint11_linear_3554_2168" x1="585.893" y1="195.997" x2="583.615" y2="193.158" gradientUnits="userSpaceOnUse">
<stop stop-color="#F44274"/>
<stop offset="1" stop-color="#E51F9A"/>
</linearGradient>
<linearGradient id="paint12_linear_3554_2168" x1="547.319" y1="191.403" x2="545.827" y2="189.544" gradientUnits="userSpaceOnUse">
<stop stop-color="#B5188D"/>
<stop offset="1" stop-color="#4E69AE"/>
</linearGradient>
<linearGradient id="paint13_linear_3554_2168" x1="560.766" y1="177.045" x2="556.633" y2="171.894" gradientUnits="userSpaceOnUse">
<stop stop-color="#6DD0E7"/>
<stop offset="1" stop-color="#01A7DB"/>
</linearGradient>
<linearGradient id="paint14_linear_3554_2168" x1="568.445" y1="152.375" x2="564.987" y2="148.066" gradientUnits="userSpaceOnUse">
<stop stop-color="#B4DF86"/>
<stop offset="1" stop-color="#84C743"/>
</linearGradient>
<linearGradient id="paint15_linear_3554_2168" x1="533.289" y1="140.606" x2="531.313" y2="138.144" gradientUnits="userSpaceOnUse">
<stop stop-color="#BE1E68"/>
<stop offset="1" stop-color="#B5188D"/>
</linearGradient>
<linearGradient id="paint16_linear_3554_2168" x1="289.721" y1="115.319" x2="284.236" y2="112.572" gradientUnits="userSpaceOnUse">
<stop stop-color="#F44274"/>
<stop offset="1" stop-color="#E51F9A"/>
</linearGradient>
<linearGradient id="paint17_linear_3554_2168" x1="274.706" y1="79.5281" x2="270.315" y2="77.3294" gradientUnits="userSpaceOnUse">
<stop stop-color="#6DD0E7"/>
<stop offset="1" stop-color="#01A7DB"/>
</linearGradient>
<linearGradient id="paint18_linear_3554_2168" x1="248.929" y1="72.0409" x2="245.344" y2="70.2458" gradientUnits="userSpaceOnUse">
<stop stop-color="#BE1E68"/>
<stop offset="1" stop-color="#B5188D"/>
</linearGradient>
<linearGradient id="paint19_linear_3554_2168" x1="219.235" y1="40.7812" x2="214.859" y2="38.5896" gradientUnits="userSpaceOnUse">
<stop stop-color="#B5188D"/>
<stop offset="1" stop-color="#4E69AE"/>
</linearGradient>
<linearGradient id="paint20_linear_3554_2168" x1="206.565" y1="3.2667" x2="201.584" y2="0.772385" gradientUnits="userSpaceOnUse">
<stop stop-color="#FBE422"/>
<stop offset="1" stop-color="#C8D92B"/>
</linearGradient>
<linearGradient id="paint21_linear_3554_2168" x1="402.035" y1="493.202" x2="397.126" y2="490.744" gradientUnits="userSpaceOnUse">
<stop stop-color="#B5188D"/>
<stop offset="1" stop-color="#4E69AE"/>
</linearGradient>
<linearGradient id="paint22_linear_3554_2168" x1="382.739" y1="481.444" x2="377.124" y2="478.633" gradientUnits="userSpaceOnUse">
<stop stop-color="#F8B54A"/>
<stop offset="1" stop-color="#F8A629"/>
</linearGradient>
<linearGradient id="paint23_linear_3554_2168" x1="382.18" y1="471.647" x2="377.458" y2="469.283" gradientUnits="userSpaceOnUse">
<stop stop-color="#B4DF86"/>
<stop offset="1" stop-color="#84C743"/>
</linearGradient>
<linearGradient id="paint24_linear_3554_2168" x1="348.052" y1="440.653" x2="341.977" y2="437.611" gradientUnits="userSpaceOnUse">
<stop stop-color="#F8B54A"/>
<stop offset="1" stop-color="#F8A629"/>
</linearGradient>
<linearGradient id="paint25_linear_3554_2168" x1="358.351" y1="394.595" x2="354.723" y2="392.779" gradientUnits="userSpaceOnUse">
<stop stop-color="#6DD0E7"/>
<stop offset="1" stop-color="#01A7DB"/>
</linearGradient>
<linearGradient id="paint26_linear_3554_2168" x1="381.532" y1="387.16" x2="377.386" y2="385.084" gradientUnits="userSpaceOnUse">
<stop stop-color="#BE1E68"/>
<stop offset="1" stop-color="#B5188D"/>
</linearGradient>
<linearGradient id="paint27_linear_3554_2168" x1="223.956" y1="490.281" x2="218.01" y2="487.304" gradientUnits="userSpaceOnUse">
<stop stop-color="#B4DF86"/>
<stop offset="1" stop-color="#84C743"/>
</linearGradient>
<linearGradient id="paint28_linear_3554_2168" x1="184.764" y1="472.533" x2="179.365" y2="469.83" gradientUnits="userSpaceOnUse">
<stop stop-color="#FBE422"/>
<stop offset="1" stop-color="#C8D92B"/>
</linearGradient>
<linearGradient id="paint29_linear_3554_2168" x1="179.606" y1="450.693" x2="176.036" y2="448.905" gradientUnits="userSpaceOnUse">
<stop stop-color="#F8B54A"/>
<stop offset="1" stop-color="#F8A629"/>
</linearGradient>
<linearGradient id="paint30_linear_3554_2168" x1="182.647" y1="421.796" x2="179.22" y2="420.081" gradientUnits="userSpaceOnUse">
<stop stop-color="#BE1E68"/>
<stop offset="1" stop-color="#B5188D"/>
</linearGradient>
<linearGradient id="paint31_linear_3554_2168" x1="402.105" y1="123.623" x2="396.605" y2="120.869" gradientUnits="userSpaceOnUse">
<stop stop-color="#6DD0E7"/>
<stop offset="1" stop-color="#01A7DB"/>
</linearGradient>
<linearGradient id="paint32_linear_3554_2168" x1="392.604" y1="145.49" x2="388.702" y2="143.536" gradientUnits="userSpaceOnUse">
<stop stop-color="#F44274"/>
<stop offset="1" stop-color="#E51F9A"/>
</linearGradient>
<linearGradient id="paint33_linear_3554_2168" x1="406.984" y1="147.454" x2="401.614" y2="144.765" gradientUnits="userSpaceOnUse">
<stop stop-color="#B5188D"/>
<stop offset="1" stop-color="#4E69AE"/>
</linearGradient>
<linearGradient id="paint34_linear_3554_2168" x1="419.418" y1="174.891" x2="416.366" y2="173.363" gradientUnits="userSpaceOnUse">
<stop stop-color="#BE1E68"/>
<stop offset="1" stop-color="#B5188D"/>
</linearGradient>
<linearGradient id="paint35_linear_3554_2168" x1="454.478" y1="174.423" x2="452.131" y2="173.248" gradientUnits="userSpaceOnUse">
<stop stop-color="#F8B54A"/>
<stop offset="1" stop-color="#F8A629"/>
</linearGradient>
<linearGradient id="paint36_linear_3554_2168" x1="344.535" y1="215.725" x2="340.936" y2="213.922" gradientUnits="userSpaceOnUse">
<stop stop-color="#BE1E68"/>
<stop offset="1" stop-color="#B5188D"/>
</linearGradient>
<linearGradient id="paint37_linear_3554_2168" x1="383.84" y1="207.215" x2="379.377" y2="204.981" gradientUnits="userSpaceOnUse">
<stop stop-color="#6DD0E7"/>
<stop offset="1" stop-color="#01A7DB"/>
</linearGradient>
<linearGradient id="paint38_linear_3554_2168" x1="317.612" y1="269.306" x2="313.106" y2="267.05" gradientUnits="userSpaceOnUse">
<stop stop-color="#F71873"/>
<stop offset="1" stop-color="#F8A629"/>
</linearGradient>
<linearGradient id="paint39_linear_3554_2168" x1="333.824" y1="245.759" x2="328.54" y2="243.113" gradientUnits="userSpaceOnUse">
<stop stop-color="#FBE422"/>
<stop offset="1" stop-color="#C8D92B"/>
</linearGradient>
<linearGradient id="paint40_linear_3554_2168" x1="331.441" y1="232.004" x2="328.259" y2="230.41" gradientUnits="userSpaceOnUse">
<stop stop-color="#BE1E68"/>
<stop offset="1" stop-color="#B5188D"/>
</linearGradient>
<linearGradient id="paint41_linear_3554_2168" x1="327.601" y1="212.415" x2="322.548" y2="209.885" gradientUnits="userSpaceOnUse">
<stop stop-color="#6DD0E7"/>
<stop offset="1" stop-color="#01A7DB"/>
</linearGradient>
<linearGradient id="paint42_linear_3554_2168" x1="246.22" y1="364.955" x2="242.059" y2="362.872" gradientUnits="userSpaceOnUse">
<stop stop-color="#FBE422"/>
<stop offset="1" stop-color="#C8D92B"/>
</linearGradient>
<linearGradient id="paint43_linear_3554_2168" x1="221.368" y1="343.578" x2="217.366" y2="341.574" gradientUnits="userSpaceOnUse">
<stop stop-color="#BE1E68"/>
<stop offset="1" stop-color="#B5188D"/>
</linearGradient>
<linearGradient id="paint44_linear_3554_2168" x1="194.655" y1="365.991" x2="188.551" y2="362.934" gradientUnits="userSpaceOnUse">
<stop stop-color="#B4DF86"/>
<stop offset="1" stop-color="#84C743"/>
</linearGradient>
<linearGradient id="paint45_linear_3554_2168" x1="152.787" y1="359.134" x2="148.698" y2="357.087" gradientUnits="userSpaceOnUse">
<stop stop-color="#B5188D"/>
<stop offset="1" stop-color="#4E69AE"/>
</linearGradient>
<linearGradient id="paint46_linear_3554_2168" x1="142.719" y1="389.686" x2="136.917" y2="386.781" gradientUnits="userSpaceOnUse">
<stop stop-color="#6DD0E7"/>
<stop offset="1" stop-color="#01A7DB"/>
</linearGradient>
<linearGradient id="paint47_linear_3554_2168" x1="118.012" y1="395.633" x2="113.736" y2="393.492" gradientUnits="userSpaceOnUse">
<stop stop-color="#F71873"/>
<stop offset="1" stop-color="#F8A629"/>
</linearGradient>
<linearGradient id="paint48_linear_3554_2168" x1="251.607" y1="138.951" x2="247.475" y2="136.882" gradientUnits="userSpaceOnUse">
<stop stop-color="#FBE422"/>
<stop offset="1" stop-color="#C8D92B"/>
</linearGradient>
<linearGradient id="paint49_linear_3554_2168" x1="286.896" y1="150.976" x2="283.052" y2="149.051" gradientUnits="userSpaceOnUse">
<stop stop-color="#F71873"/>
<stop offset="1" stop-color="#C6211B"/>
</linearGradient>
<linearGradient id="paint50_linear_3554_2168" x1="306.524" y1="153.068" x2="303.486" y2="151.547" gradientUnits="userSpaceOnUse">
<stop stop-color="#F71873"/>
<stop offset="1" stop-color="#F8A629"/>
</linearGradient>
<linearGradient id="paint51_linear_3554_2168" x1="322.581" y1="201.066" x2="319.428" y2="199.487" gradientUnits="userSpaceOnUse">
<stop stop-color="#6DD0E7"/>
<stop offset="1" stop-color="#01A7DB"/>
</linearGradient>
<linearGradient id="paint52_linear_3554_2168" x1="2.81208" y1="375.308" x2="-1.9531" y2="372.922" gradientUnits="userSpaceOnUse">
<stop stop-color="#F71873"/>
<stop offset="1" stop-color="#F8A629"/>
</linearGradient>
<linearGradient id="paint53_linear_3554_2168" x1="11.4276" y1="350.762" x2="7.77094" y2="348.931" gradientUnits="userSpaceOnUse">
<stop stop-color="#F8B54A"/>
<stop offset="1" stop-color="#F8A629"/>
</linearGradient>
<linearGradient id="paint54_linear_3554_2168" x1="23.0789" y1="380.63" x2="19.3647" y2="378.77" gradientUnits="userSpaceOnUse">
<stop stop-color="#F71873"/>
<stop offset="1" stop-color="#C6211B"/>
</linearGradient>
<linearGradient id="paint55_linear_3554_2168" x1="442.456" y1="268.662" x2="438.583" y2="266.723" gradientUnits="userSpaceOnUse">
<stop stop-color="#F8B54A"/>
<stop offset="1" stop-color="#F8A629"/>
</linearGradient>
<linearGradient id="paint56_linear_3554_2168" x1="473.148" y1="278.888" x2="468.973" y2="276.798" gradientUnits="userSpaceOnUse">
<stop stop-color="#F71873"/>
<stop offset="1" stop-color="#F8A629"/>
</linearGradient>
<linearGradient id="paint57_linear_3554_2168" x1="450.055" y1="330.888" x2="446.6" y2="329.158" gradientUnits="userSpaceOnUse">
<stop stop-color="#BE1E68"/>
<stop offset="1" stop-color="#B5188D"/>
</linearGradient>
<linearGradient id="paint58_linear_3554_2168" x1="313.398" y1="200.574" x2="310.231" y2="198.988" gradientUnits="userSpaceOnUse">
<stop stop-color="#F71873"/>
<stop offset="1" stop-color="#F8A629"/>
</linearGradient>
<linearGradient id="paint59_linear_3554_2168" x1="313.398" y1="199.471" x2="310.317" y2="197.928" gradientUnits="userSpaceOnUse">
<stop stop-color="#F71873"/>
<stop offset="1" stop-color="#F8A629"/>
</linearGradient>
<linearGradient id="paint60_linear_3554_2168" x1="293.096" y1="164.98" x2="289.094" y2="162.976" gradientUnits="userSpaceOnUse">
<stop stop-color="#F8B54A"/>
<stop offset="1" stop-color="#F8A629"/>
</linearGradient>
<linearGradient id="paint61_linear_3554_2168" x1="293.1" y1="164.043" x2="289.199" y2="162.089" gradientUnits="userSpaceOnUse">
<stop stop-color="#F8B54A"/>
<stop offset="1" stop-color="#F8A629"/>
</linearGradient>
<linearGradient id="paint62_linear_3554_2168" x1="332.125" y1="159.498" x2="328.194" y2="157.53" gradientUnits="userSpaceOnUse">
<stop stop-color="#6DD0E7"/>
<stop offset="1" stop-color="#01A7DB"/>
</linearGradient>
<linearGradient id="paint63_linear_3554_2168" x1="332.304" y1="157.883" x2="328.561" y2="156.009" gradientUnits="userSpaceOnUse">
<stop stop-color="#6DD0E7"/>
<stop offset="1" stop-color="#01A7DB"/>
</linearGradient>
<linearGradient id="paint64_linear_3554_2168" x1="405.862" y1="342.128" x2="402.609" y2="340.499" gradientUnits="userSpaceOnUse">
<stop stop-color="#F44274"/>
<stop offset="1" stop-color="#E51F9A"/>
</linearGradient>
<linearGradient id="paint65_linear_3554_2168" x1="416.061" y1="307.402" x2="411.713" y2="305.225" gradientUnits="userSpaceOnUse">
<stop stop-color="#6DD0E7"/>
<stop offset="1" stop-color="#01A7DB"/>
</linearGradient>
<linearGradient id="paint66_linear_3554_2168" x1="418.048" y1="284.567" x2="412.318" y2="281.697" gradientUnits="userSpaceOnUse">
<stop stop-color="#F8B54A"/>
<stop offset="1" stop-color="#F8A629"/>
</linearGradient>
<linearGradient id="paint67_linear_3554_2168" x1="153.994" y1="284.08" x2="150.338" y2="282.249" gradientUnits="userSpaceOnUse">
<stop stop-color="#BE1E68"/>
<stop offset="1" stop-color="#B5188D"/>
</linearGradient>
<linearGradient id="paint68_linear_3554_2168" x1="105.008" y1="261.516" x2="100.387" y2="259.202" gradientUnits="userSpaceOnUse">
<stop stop-color="#F71873"/>
<stop offset="1" stop-color="#F8A629"/>
</linearGradient>
<linearGradient id="paint69_linear_3554_2168" x1="96.4357" y1="231.908" x2="93.4988" y2="230.437" gradientUnits="userSpaceOnUse">
<stop stop-color="#B4DF86"/>
<stop offset="1" stop-color="#84C743"/>
</linearGradient>
<linearGradient id="paint70_linear_3554_2168" x1="306.524" y1="178.343" x2="302.968" y2="176.562" gradientUnits="userSpaceOnUse">
<stop stop-color="#B4DF86"/>
<stop offset="1" stop-color="#84C743"/>
</linearGradient>
<linearGradient id="paint71_linear_3554_2168" x1="341.005" y1="187.38" x2="337.564" y2="185.658" gradientUnits="userSpaceOnUse">
<stop stop-color="#F71873"/>
<stop offset="1" stop-color="#C6211B"/>
</linearGradient>
<linearGradient id="paint72_linear_3554_2168" x1="366.28" y1="161.947" x2="362.221" y2="159.914" gradientUnits="userSpaceOnUse">
<stop stop-color="#FBE422"/>
<stop offset="1" stop-color="#C8D92B"/>
</linearGradient>
<linearGradient id="paint73_linear_3554_2168" x1="213.406" y1="353.315" x2="208.756" y2="350.987" gradientUnits="userSpaceOnUse">
<stop stop-color="#F44274"/>
<stop offset="1" stop-color="#E51F9A"/>
</linearGradient>
<linearGradient id="paint74_linear_3554_2168" x1="227.047" y1="371.659" x2="223.635" y2="369.951" gradientUnits="userSpaceOnUse">
<stop stop-color="#B5188D"/>
<stop offset="1" stop-color="#4E69AE"/>
</linearGradient>
<linearGradient id="paint75_linear_3554_2168" x1="245.18" y1="402.738" x2="241.077" y2="400.683" gradientUnits="userSpaceOnUse">
<stop stop-color="#F44274"/>
<stop offset="1" stop-color="#E51F9A"/>
</linearGradient>
<linearGradient id="paint76_linear_3554_2168" x1="256.201" y1="401.04" x2="251.709" y2="398.79" gradientUnits="userSpaceOnUse">
<stop stop-color="#6DD0E7"/>
<stop offset="1" stop-color="#01A7DB"/>
</linearGradient>
</defs>
</svg>
