<svg width="123" height="29" viewBox="0 0 123 29" fill="none" xmlns="http://www.w3.org/2000/svg">
<path d="M1.596 6.628V2.4H16.968L7.7 17.94H15.96V22H0.252L9.38 6.628H1.596ZM17.4116 15.56C17.4116 14.1973 17.729 13.012 18.3636 12.004C18.9983 10.996 19.8756 10.212 20.9956 9.652C22.1156 9.092 23.3756 8.812 24.7756 8.812C26.1756 8.812 27.4263 9.092 28.5276 9.652C29.6476 10.212 30.525 10.996 31.1596 12.004C31.813 13.012 32.1396 14.1973 32.1396 15.56C32.1396 16.904 31.813 18.08 31.1596 19.088C30.525 20.096 29.6476 20.88 28.5276 21.44C27.4263 22 26.1756 22.28 24.7756 22.28C23.3756 22.28 22.1156 22 20.9956 21.44C19.8756 20.88 18.9983 20.096 18.3636 19.088C17.729 18.08 17.4116 16.904 17.4116 15.56ZM21.7516 15.56C21.7516 16.232 21.8916 16.8107 22.1716 17.296C22.4516 17.7627 22.8156 18.1267 23.2636 18.388C23.7116 18.6493 24.2156 18.78 24.7756 18.78C25.317 18.78 25.8116 18.6493 26.2596 18.388C26.7263 18.1267 27.0903 17.7627 27.3516 17.296C27.6316 16.8107 27.7716 16.232 27.7716 15.56C27.7716 14.888 27.6316 14.3093 27.3516 13.824C27.0903 13.3387 26.7263 12.9653 26.2596 12.704C25.8116 12.4427 25.317 12.312 24.7756 12.312C24.2156 12.312 23.7116 12.4427 23.2636 12.704C22.8156 12.9653 22.4516 13.3387 22.1716 13.824C21.8916 14.3093 21.7516 14.888 21.7516 15.56ZM33.9273 15.56C33.9273 14.1973 34.2446 13.012 34.8792 12.004C35.5139 10.996 36.3913 10.212 37.5113 9.652C38.6313 9.092 39.8913 8.812 41.2913 8.812C42.6913 8.812 43.9419 9.092 45.0433 9.652C46.1633 10.212 47.0406 10.996 47.6753 12.004C48.3286 13.012 48.6553 14.1973 48.6553 15.56C48.6553 16.904 48.3286 18.08 47.6753 19.088C47.0406 20.096 46.1633 20.88 45.0433 21.44C43.9419 22 42.6913 22.28 41.2913 22.28C39.8913 22.28 38.6313 22 37.5113 21.44C36.3913 20.88 35.5139 20.096 34.8792 19.088C34.2446 18.08 33.9273 16.904 33.9273 15.56ZM38.2673 15.56C38.2673 16.232 38.4073 16.8107 38.6873 17.296C38.9673 17.7627 39.3313 18.1267 39.7793 18.388C40.2273 18.6493 40.7313 18.78 41.2913 18.78C41.8326 18.78 42.3273 18.6493 42.7753 18.388C43.2419 18.1267 43.6059 17.7627 43.8673 17.296C44.1473 16.8107 44.2873 16.232 44.2873 15.56C44.2873 14.888 44.1473 14.3093 43.8673 13.824C43.6059 13.3387 43.2419 12.9653 42.7753 12.704C42.3273 12.4427 41.8326 12.312 41.2913 12.312C40.7313 12.312 40.2273 12.4427 39.7793 12.704C39.3313 12.9653 38.9673 13.3387 38.6873 13.824C38.4073 14.3093 38.2673 14.888 38.2673 15.56ZM70.8549 13.712V22H66.5989V14.16C66.5989 13.376 66.4682 12.788 66.2069 12.396C65.9642 11.9853 65.5535 11.78 64.9749 11.78C64.6015 11.78 64.2655 11.8733 63.9669 12.06C63.6869 12.228 63.4629 12.4893 63.2949 12.844C63.1455 13.1987 63.0709 13.6373 63.0709 14.16V22H58.8149V14.16C58.8149 13.376 58.6842 12.788 58.4229 12.396C58.1802 11.9853 57.7695 11.78 57.1909 11.78C56.8175 11.78 56.4815 11.8733 56.1829 12.06C55.9029 12.228 55.6789 12.4893 55.5109 12.844C55.3615 13.1987 55.2869 13.6373 55.2869 14.16V22H51.1989V9.12H55.2869V11.024C55.6415 10.3333 56.1269 9.792 56.7429 9.4C57.3775 9.008 58.1335 8.812 59.0109 8.812C60.0189 8.812 60.8215 8.99867 61.4189 9.372C62.0162 9.72667 62.4455 10.2493 62.7069 10.94C63.1735 10.268 63.7522 9.74533 64.4429 9.372C65.1335 8.99867 65.9175 8.812 66.7949 8.812C67.8029 8.812 68.5962 9.008 69.1749 9.4C69.7722 9.77333 70.2015 10.324 70.4629 11.052C70.7242 11.78 70.8549 12.6667 70.8549 13.712ZM80.7196 22.28C79.2263 22.28 77.929 22.0093 76.8276 21.468C75.745 20.908 74.905 20.124 74.3076 19.116C73.7103 18.108 73.4116 16.9227 73.4116 15.56C73.4116 14.1787 73.701 12.984 74.2796 11.976C74.8583 10.968 75.689 10.1933 76.7716 9.652C77.873 9.11067 79.1703 8.84 80.6636 8.84C82.157 8.84 83.417 9.10133 84.4436 9.624C85.4703 10.128 86.2543 10.8653 86.7956 11.836C87.337 12.8067 87.6076 13.9827 87.6076 15.364C87.6076 15.5693 87.6076 15.7747 87.6076 15.98C87.6076 16.1667 87.589 16.3253 87.5516 16.456H75.7916V14.104H83.7436L82.7356 15.392C82.829 15.2613 82.9036 15.1027 82.9596 14.916C83.0343 14.7107 83.0716 14.5427 83.0716 14.412C83.0716 13.852 82.969 13.3667 82.7636 12.956C82.5583 12.5453 82.269 12.228 81.8956 12.004C81.5223 11.78 81.0836 11.668 80.5796 11.668C79.945 11.668 79.413 11.808 78.9836 12.088C78.5543 12.368 78.2276 12.7973 78.0036 13.376C77.7983 13.936 77.6863 14.6453 77.6676 15.504C77.6676 16.288 77.7796 16.96 78.0036 17.52C78.2276 18.08 78.5636 18.5093 79.0116 18.808C79.4596 19.088 80.0103 19.228 80.6636 19.228C81.4103 19.228 82.045 19.088 82.5676 18.808C83.109 18.528 83.5383 18.108 83.8556 17.548L87.6356 18.472C86.9636 19.7413 86.049 20.6933 84.8916 21.328C83.753 21.9627 82.3623 22.28 80.7196 22.28ZM94.3904 9.12V22H90.2184V9.12H94.3904ZM98.1144 13.488C97.8904 13.264 97.6477 13.0867 97.3864 12.956C97.1437 12.8253 96.8357 12.76 96.4624 12.76C96.0517 12.76 95.6877 12.872 95.3704 13.096C95.0531 13.32 94.8104 13.6467 94.6424 14.076C94.4744 14.5053 94.3904 15.028 94.3904 15.644L93.3824 14.16C93.3824 13.1333 93.5784 12.2187 93.9704 11.416C94.3811 10.6133 94.9131 9.97867 95.5664 9.512C96.2197 9.04533 96.9011 8.812 97.6104 8.812C98.0771 8.812 98.5251 8.90533 98.9544 9.092C99.3837 9.27867 99.7104 9.54 99.9344 9.876L98.1144 13.488ZM101.73 0.159999H105.986V22H101.73V0.159999ZM122.465 9.12L114.065 28.16H109.809L112.945 20.964L107.373 9.12H112.021L116.193 19.452L114.009 19.424L118.125 9.12H122.465Z" fill="url(#paint0_linear_4086_11669)"/>
<defs>
<linearGradient id="paint0_linear_4086_11669" x1="0" y1="12" x2="123" y2="12" gradientUnits="userSpaceOnUse">
<stop stop-color="#E5408A"/>
<stop offset="1" stop-color="#845CBA"/>
</linearGradient>
</defs>
</svg>
